<svg xmlns="http://www.w3.org/2000/svg" width="129.272" height="35.742" viewBox="0 0 129.272 35.742"><path d="M-131.006,0h5.737l3.2-9.521h13.452L-105.42,0h5.762l-12.72-35.229h-5.908Zm15.6-29.395h.122l5.2,15.479h-10.522ZM-82.764.513c6.519,0,10.742-5.176,10.742-13.354v-.024c0-8.179-4.248-13.306-10.693-13.306a8.784,8.784,0,0,0-8.105,4.858h-.122V-35.229h-5.273V0h5.273V-4.346h.122A8.676,8.676,0,0,0-82.764.513Zm-1.392-4.541c-4,0-6.812-3.467-6.812-8.813v-.024c0-5.322,2.832-8.789,6.812-8.789,4.15,0,6.738,3.369,6.738,8.789v.024C-77.417-7.373-80-4.028-84.155-4.028ZM-56.909.513c7.349,0,12.183-5.078,12.183-13.354v-.049c0-8.228-4.883-13.281-12.207-13.281-7.3,0-12.158,5.078-12.158,13.281v.049C-69.092-4.59-64.282.513-56.909.513Zm.024-4.419c-4.126,0-6.812-3.247-6.812-8.936v-.049c0-5.615,2.71-8.862,6.763-8.862,4.126,0,6.812,3.247,6.812,8.862v.049C-50.122-7.178-52.759-3.906-56.885-3.906ZM-31.909.513c3.906,0,6.519-1.782,7.861-4.37h.122V0h5.3V-25.684h-5.3v14.99c0,4-2.393,6.665-6.1,6.665-3.662,0-5.469-2.148-5.469-6.03V-25.684h-5.273v16.65C-40.771-3.125-37.549.513-31.909.513Zm27.49,0A17.646,17.646,0,0,0-1.733.293V-3.784a11.03,11.03,0,0,1-1.416.1c-2.222,0-3.394-.781-3.394-3.394v-14.4h4.81v-4.2h-4.81v-6.689h-5.4v6.689h-3.687v4.2h3.687V-6.763C-11.938-1.636-9.5.513-4.419.513Z" transform="translate(131.006 35.229)" fill="#f7f7f5"/></svg>