<svg xmlns="http://www.w3.org/2000/svg" width="1810.5" height="339.898" viewBox="0 0 1810.5 339.898"><g transform="translate(-55 -160.805)"><path d="M0,0H1810" transform="translate(55.5 416.5)" fill="none" stroke="#f7f7f5" stroke-width="4"/><path d="M12.686,0h6.3L28.1-31.875h.146L37.324,0h6.3L55.049-42.275H48.223L40.342-9.141H40.2L31.26-42.275H25.049L16.113-9.141H16L8.115-42.275H1.289ZM60.234,0H66.8V-42.275H60.234ZM85.078,0h6.563V-36.621h12.92v-5.654H72.129v5.654H85.078Zm24.814,0h6.563V-18.721h21.709V0h6.563V-42.275h-6.562V-24.4H116.455V-42.275h-6.562Zm69.17.7c10.02,0,16.113-4.893,16.113-12.6v-.029c0-6.533-3.75-10.078-12.48-11.924l-4.629-.967c-5.273-1.143-7.676-3.076-7.676-6.24v-.029c0-3.691,3.34-6.182,8.584-6.211,5.01,0,8.408,2.373,8.994,6.3l.029.41h6.387l-.029-.5c-.439-7.09-6.475-11.895-15.293-11.895-8.936,0-15.293,4.951-15.322,12.158v.029c0,6.27,4.014,10.078,12.3,11.836l4.6.967c5.6,1.23,7.91,3.076,7.91,6.475v.029c0,3.955-3.574,6.5-9.229,6.5s-9.551-2.432-10.137-6.328l-.059-.381h-6.387l.029.439C163.3-3.809,169.57.7,179.063.7Zm40.283,0c12.217,0,19.8-8.408,19.8-21.826v-.059c0-13.389-7.617-21.8-19.8-21.8-12.158,0-19.8,8.379-19.8,21.8v.059C199.541-7.676,207.158.7,219.346.7Zm0-5.8c-8.027,0-13.125-6.182-13.125-16.025v-.059c0-9.844,5.127-16,13.125-16,8.027,0,13.1,6.182,13.1,16v.059C232.441-11.367,227.461-5.1,219.346-5.1ZM245.391,0h5.977V-31.2h.205L264.316,0h4.863l12.744-31.2h.205V0h5.977V-42.275h-7.559L266.836-8.525h-.176l-13.682-33.75h-7.588ZM295.9,0h26.836V-5.654H302.461V-18.779H321.65v-5.508H302.461V-36.621h20.273v-5.654H295.9Zm63.809.7c9.346,0,16.348-5.654,17.666-14.062l.029-.293h-6.5l-.088.264c-1.582,5.361-5.479,8.291-11.1,8.291-7.822,0-12.891-6.27-12.891-16.055v-.029c0-9.785,5.039-16,12.891-16,5.684,0,9.609,3.018,11.016,7.969l.176.586h6.5l-.059-.264c-1.318-8.35-8.32-14.092-17.637-14.092-11.982,0-19.6,8.379-19.6,21.8v.029C340.107-7.734,347.725.7,359.707.7Zm41.924,0c12.217,0,19.8-8.408,19.8-21.826v-.059c0-13.389-7.617-21.8-19.8-21.8-12.158,0-19.8,8.379-19.8,21.8v.059C381.826-7.676,389.443.7,401.631.7Zm0-5.8c-8.027,0-13.125-6.182-13.125-16.025v-.059c0-9.844,5.127-16,13.125-16,8.027,0,13.1,6.182,13.1,16v.059C414.727-11.367,409.746-5.1,401.631-5.1ZM427.676,0h14.912c12.6,0,20.01-7.852,20.01-21.211v-.059c0-13.3-7.471-21.006-20.01-21.006H427.676Zm6.563-5.684V-36.621h7.734c8.906,0,13.916,5.479,13.916,15.41v.059c0,9.99-4.951,15.469-13.916,15.469ZM468.867,0h6.563V-42.275h-6.562Zm14.355,0h6.5V-31.318h.176L511.67,0h6.035V-42.275h-6.5v31.26h-.176l-21.738-31.26h-6.064Zm60.469.7c11.455,0,18.223-6.826,18.223-18.281v-4.336h-17.4v5.361h10.928v.7C555.352-9.434,550.605-5.1,543.75-5.1c-8.057,0-13.1-6.152-13.1-16.26v-.029c0-9.9,4.893-15.791,12.979-15.791a11.124,11.124,0,0,1,11.133,7.734l.088.322h6.738l-.117-.527c-1.758-7.617-7.969-13.33-17.871-13.33-12.012,0-19.629,8.291-19.629,21.621v.029C523.975-7.734,531.592.7,543.691.7ZM594.9.7c10.02,0,16.113-4.893,16.113-12.6v-.029c0-6.533-3.75-10.078-12.48-11.924l-4.629-.967c-5.273-1.143-7.676-3.076-7.676-6.24v-.029c0-3.691,3.34-6.182,8.584-6.211,5.01,0,8.408,2.373,8.994,6.3l.029.41h6.387l-.029-.5c-.439-7.09-6.475-11.895-15.293-11.895-8.936,0-15.293,4.951-15.322,12.158v.029c0,6.27,4.014,10.078,12.3,11.836l4.6.967c5.6,1.23,7.91,3.076,7.91,6.475v.029c0,3.955-3.574,6.5-9.229,6.5s-9.551-2.432-10.137-6.328l-.059-.381h-6.387l.029.439C579.141-3.809,585.41.7,594.9.7Zm22-.7h6.563V-14.121l4.365-5.039L642.451,0H650.6L632.49-23.613l16.7-18.662H641.4L623.643-22.031h-.176V-42.275H616.9Zm37.881,0h6.563V-42.275h-6.562Zm14.355,0h26.25V-5.654H675.7V-42.275h-6.562Zm31.875,0h26.25V-5.654H707.578V-42.275h-6.562ZM747.3.7c10.02,0,16.113-4.893,16.113-12.6v-.029c0-6.533-3.75-10.078-12.48-11.924l-4.629-.967c-5.273-1.143-7.676-3.076-7.676-6.24v-.029c0-3.691,3.34-6.182,8.584-6.211,5.01,0,8.408,2.373,8.994,6.3l.029.41h6.387l-.029-.5c-.439-7.09-6.475-11.895-15.293-11.895-8.936,0-15.293,4.951-15.322,12.158v.029c0,6.27,4.014,10.078,12.3,11.836l4.6.967c5.6,1.23,7.91,3.076,7.91,6.475v.029c0,3.955-3.574,6.5-9.229,6.5s-9.551-2.432-10.137-6.328l-.059-.381h-6.387l.029.439C731.543-3.809,737.813.7,747.3.7Z" transform="translate(1100 500)" fill="#f7f7f5"/><path d="M103.933-5.825c52.12,0,83.709-30.87,83.709-76.242V-216.461H155.622V-84.652c0,30.152-18.666,50.4-51.69,50.4S52.1-54.5,52.1-84.652V-216.461H19.937V-82.068C19.937-36.7,51.956-5.825,103.933-5.825ZM213.055-9.271h35.608l51.977-79.114h1.149l51.69,79.114H391.1l-68.92-103.092v-.574L392.39-216.461H356.064l-51.4,80.263h-1.292L252.11-216.461H213.773l68.2,102.518v.431Zm264.335,0h73.083c61.74,0,98.067-38.48,98.067-103.954v-.287c0-65.186-36.614-102.949-98.067-102.949H477.391Zm32.162-27.855V-188.749h37.906c43.649,0,68.2,26.85,68.2,75.524v.287c0,48.962-24.265,75.812-68.2,75.812ZM679.268-9.271H810.789V-36.983H711.43v-64.325h94.047V-128.3H711.43v-60.448h99.359v-27.711H679.268ZM914.456-5.825c49.105,0,78.97-23.978,78.97-61.74v-.144c0-32.019-18.379-49.392-61.166-58.438l-22.686-4.738c-25.845-5.6-37.619-15.076-37.619-30.583v-.144c0-18.091,16.368-30.3,42.07-30.439,24.553,0,41.208,11.63,44.08,30.87l.144,2.01h31.3l-.144-2.441c-2.154-34.747-31.732-58.294-74.95-58.294-43.793,0-74.95,24.265-75.094,59.587v.144c0,30.727,19.671,49.392,60.3,58.007l22.542,4.738c27.424,6.03,38.767,15.076,38.767,31.732v.144c0,19.384-17.517,31.875-45.228,31.875S868.94-45.6,866.068-64.694l-.287-1.867h-31.3l.144,2.154C837.208-27.937,867.935-5.825,914.456-5.825Zm107.83-3.446h32.162V-216.461h-32.162Zm159.52,3.446c56.141,0,89.308-33.455,89.308-89.6v-21.25h-85.288V-90.4h53.556v3.446c-.431,31.445-23.691,52.695-57.289,52.695-39.485,0-64.181-30.152-64.181-79.688v-.144c0-48.531,23.978-77.391,63.607-77.391,26.993,0,45.8,13.927,54.561,37.906l.431,1.579h33.024l-.574-2.584c-8.615-37.331-39.054-65.33-87.585-65.33-58.869,0-96.2,40.634-96.2,105.964v.144C1085.175-47.177,1122.507-5.825,1181.806-5.825Zm120.753-3.446h31.875v-153.49h.861L1441.978-9.271h29.578V-216.461H1439.68v153.2h-.862l-106.538-153.2h-29.722Zm207.19,0H1641.27V-36.983h-99.359v-64.325h94.047V-128.3h-94.047v-60.448h99.359v-27.711H1509.749Zm164.545,0h32.162V-88.816h44.223l42.213,79.545h37.044L1783.56-93.7c24.84-8.471,40.2-30.87,40.2-59.012V-153c0-38.911-26.706-63.463-69.063-63.463h-80.406Zm32.162-105.964v-74.232h44.223c24.7,0,39.916,13.784,39.916,36.757v.287c0,23.548-14.215,37.188-39.054,37.188Z" transform="translate(35.063 380.712)" fill="#f7f7f5"/></g></svg>