<svg xmlns="http://www.w3.org/2000/svg" width="187.427" height="35.815" viewBox="0 0 187.427 35.815"><path d="M3.247,0H15.674c10.5,0,16.675-6.543,16.675-17.676v-.049c0-11.084-6.226-17.5-16.675-17.5H3.247ZM8.716-4.736V-30.518h6.445c7.422,0,11.6,4.565,11.6,12.842v.049c0,8.325-4.126,12.891-11.6,12.891ZM37.573,0h5.469V-13.525h7.52L57.739,0h6.3L56.152-14.355A10.148,10.148,0,0,0,62.988-24.39v-.049c0-6.616-4.541-10.791-11.743-10.791H37.573Zm5.469-18.018V-30.64h7.52c4.2,0,6.787,2.344,6.787,6.25v.049c0,4-2.417,6.323-6.641,6.323Zm39.5,18.6c8.862,0,14.233-5.249,14.233-12.964V-35.229H91.333v22.412c0,5.127-3.174,8.569-8.789,8.569S73.73-7.69,73.73-12.817V-35.229H68.262v22.852C68.262-4.663,73.706.586,82.544.586ZM103.271,0h5.469V-15.6h18.091V0H132.3V-35.229h-5.469v14.893H108.74V-35.229h-5.469Zm37.866.366a3.178,3.178,0,0,0,3.2-3.2,3.163,3.163,0,0,0-3.2-3.2,3.168,3.168,0,0,0-3.223,3.2A3.184,3.184,0,0,0,141.138.366ZM149.976,0h5.469V-35.229h-5.469Zm11.963,0h5.42V-26.1h.146L185.645,0h5.029V-35.229h-5.42V-9.18h-.146l-18.115-26.05h-5.054Z" transform="translate(-3.247 35.229)" fill="#f7f7f5"/></svg>