<svg xmlns="http://www.w3.org/2000/svg" width="171.265" height="35.742" viewBox="0 0 171.265 35.742"><path d="M3.247,0H8.716V-13.525h7.52L23.413,0h6.3L21.826-14.355A10.148,10.148,0,0,0,28.662-24.39v-.049c0-6.616-4.541-10.791-11.743-10.791H3.247ZM8.716-18.018V-30.64h7.52c4.2,0,6.787,2.344,6.787,6.25v.049c0,4-2.417,6.323-6.641,6.323ZM44.165.513c6.226,0,10.181-3.711,11.011-7.788l.049-.269h-5l-.073.2c-.659,1.929-2.734,3.54-5.859,3.54-4.2,0-6.86-2.832-6.958-7.69H55.518v-1.782C55.518-21,51.1-26.172,43.9-26.172S32.056-20.8,32.056-12.769v.024C32.056-4.639,36.621.513,44.165.513Zm-.244-22.363c3.442,0,5.933,2.173,6.372,6.616H37.4C37.866-19.531,40.5-21.851,43.921-21.851ZM69.214.513c6.055,0,10.449-3.223,10.449-7.91v-.024c0-3.687-2-5.762-7.251-6.982l-4.175-.952c-2.759-.659-3.809-1.733-3.809-3.32V-18.7c0-2.051,1.782-3.394,4.614-3.394,2.979,0,4.736,1.563,5.054,3.809l.024.171h4.956l-.024-.293c-.269-4.37-3.931-7.764-10.01-7.764-5.908,0-9.912,3.149-9.912,7.739v.024c0,3.735,2.417,6.079,7.3,7.2l4.2.952c2.759.659,3.687,1.611,3.687,3.271v.024c0,2.075-1.9,3.394-5.078,3.394-3.247,0-5-1.392-5.493-3.76L63.7-7.568H58.472l.024.22C59.033-2.661,62.793.513,69.214.513Zm23.267,0c3.906,0,6.519-1.782,7.861-4.37h.122V0h5.3V-25.684h-5.3v14.99c0,4-2.393,6.665-6.1,6.665-3.662,0-5.469-2.148-5.469-6.03V-25.684H83.618v16.65C83.618-3.125,86.841.513,92.48.513ZM110.962,0h5.273V-15.869c0-3.32,2.222-5.786,5.347-5.786a4.544,4.544,0,0,1,4.858,4.883V0h5.176V-16.064a5.236,5.236,0,0,1,5.3-5.591c3.125,0,4.907,1.929,4.907,5.273V0h5.3V-17.651c0-5.151-3.32-8.521-8.4-8.521a8.4,8.4,0,0,0-8.008,5.054h-.122a7.027,7.027,0,0,0-7.153-5.054,7.351,7.351,0,0,0-7.08,4.468h-.122v-3.979h-5.273Zm52.2.513c6.226,0,10.181-3.711,11.011-7.788l.049-.269h-5l-.073.2c-.659,1.929-2.734,3.54-5.859,3.54-4.2,0-6.86-2.832-6.958-7.69h18.188v-1.782c0-7.715-4.419-12.891-11.621-12.891S151.05-20.8,151.05-12.769v.024C151.05-4.639,155.615.513,163.159.513Zm-.244-22.363c3.442,0,5.933,2.173,6.372,6.616H156.4C156.86-19.531,159.5-21.851,162.915-21.851Z" transform="translate(-3.247 35.229)" fill="#f7f7f5"/></svg>