<svg xmlns="http://www.w3.org/2000/svg" width="538.188" height="132.266" viewBox="0 0 538.188 132.266"><g transform="translate(-57.848 -713.27)"><path d="M4.676,0H22.57C37.688,0,46.582-9.422,46.582-25.453v-.07c0-15.961-8.965-25.207-24.012-25.207H4.676Zm7.875-6.82V-43.945h9.281c10.688,0,16.7,6.574,16.7,18.492v.07c0,11.988-5.941,18.563-16.7,18.563ZM54.105,0h32.2V-6.785H61.98v-15.75H85.008v-6.609H61.98v-14.8H86.309V-50.73h-32.2ZM106.98,0h7.875V-43.945h15.5V-50.73H91.441v6.785H106.98Zm19.055,0H134.3L138.9-13.711h19.371L162.879,0h8.3L152.859-50.73h-8.508ZM148.5-42.328h.176l7.488,22.289H141.012ZM176.766,0h7.875V-50.73h-7.875Zm17.227,0h31.5V-6.785H201.867V-50.73h-7.875Zm38.25,0h32.2V-6.785H240.117v-15.75h23.027v-6.609H240.117v-14.8h24.328V-50.73h-32.2Zm40.289,0h17.895c15.117,0,24.012-9.422,24.012-25.453v-.07c0-15.961-8.965-25.207-24.012-25.207H272.531Zm7.875-6.82V-43.945h9.281c10.688,0,16.7,6.574,16.7,18.492v.07c0,11.988-5.941,18.563-16.7,18.563ZM26.367,80.844c11.215,0,19.617-6.785,21.2-16.875l.035-.352H39.8l-.105.316c-1.9,6.434-6.574,9.949-13.324,9.949-9.387,0-15.469-7.523-15.469-19.266v-.035c0-11.742,6.047-19.2,15.469-19.2,6.82,0,11.531,3.621,13.219,9.563l.211.7h7.8l-.07-.316c-1.582-10.02-9.984-16.91-21.164-16.91-14.379,0-23.52,10.055-23.52,26.156v.035C2.848,70.719,11.988,80.844,26.367,80.844ZM50.344,80h8.262l4.605-13.711H82.582L87.188,80h8.3L77.168,29.27H68.66ZM72.809,37.672h.176l7.488,22.289H65.32Zm45.176,43.172c12.023,0,19.336-5.871,19.336-15.117v-.035c0-7.84-4.5-12.094-14.977-14.309l-5.555-1.16c-6.328-1.371-9.211-3.691-9.211-7.488V42.7c0-4.43,4.008-7.418,10.3-7.453,6.012,0,10.09,2.848,10.793,7.559l.035.492h7.664l-.035-.6c-.527-8.508-7.77-14.273-18.352-14.273-10.723,0-18.352,5.941-18.387,14.59v.035c0,7.523,4.816,12.094,14.766,14.2l5.52,1.16c6.715,1.477,9.492,3.691,9.492,7.77v.035c0,4.746-4.289,7.8-11.074,7.8s-11.461-2.918-12.164-7.594l-.07-.457H98.4l.035.527C99.07,75.43,106.594,80.844,117.984,80.844Zm26.4-.844h32.2V73.215H152.262V57.465h23.027V50.855H152.262v-14.8H176.59V29.27h-32.2Zm72.176.844c12.023,0,19.336-5.871,19.336-15.117v-.035c0-7.84-4.5-12.094-14.977-14.309l-5.555-1.16c-6.328-1.371-9.211-3.691-9.211-7.488V42.7c0-4.43,4.008-7.418,10.3-7.453,6.012,0,10.09,2.848,10.793,7.559l.035.492h7.664l-.035-.6c-.527-8.508-7.77-14.273-18.352-14.273-10.723,0-18.352,5.941-18.387,14.59v.035c0,7.523,4.816,12.094,14.766,14.2l5.52,1.16c6.715,1.477,9.492,3.691,9.492,7.77v.035c0,4.746-4.289,7.8-11.074,7.8s-11.461-2.918-12.164-7.594l-.07-.457H196.98l.035.527C197.648,75.43,205.172,80.844,216.563,80.844ZM254.145,80h7.875V36.055h15.5V29.27H238.605v6.785h15.539Zm50.344.844c12.762,0,20.5-7.559,20.5-18.668V29.27h-7.84V61.543c0,7.383-4.57,12.34-12.656,12.34S291.8,68.926,291.8,61.543V29.27h-7.875V62.176C283.922,73.285,291.762,80.844,304.488,80.844ZM334.336,80H352.23c15.117,0,24.012-9.422,24.012-25.453v-.07c0-15.961-8.965-25.207-24.012-25.207H334.336Zm7.875-6.82V36.055h9.281c10.688,0,16.7,6.574,16.7,18.492v.07c0,11.988-5.941,18.563-16.7,18.563ZM383.766,80h7.875V29.27h-7.875Zm17.227,0h32.2V73.215H408.867V57.465h23.027V50.855H408.867v-14.8H433.2V29.27h-32.2Zm57.586.844c12.023,0,19.336-5.871,19.336-15.117v-.035c0-7.84-4.5-12.094-14.977-14.309l-5.555-1.16c-6.328-1.371-9.211-3.691-9.211-7.488V42.7c0-4.43,4.008-7.418,10.3-7.453,6.012,0,10.09,2.848,10.793,7.559l.035.492h7.664l-.035-.6c-.527-8.508-7.77-14.273-18.352-14.273-10.723,0-18.352,5.941-18.387,14.59v.035c0,7.523,4.816,12.094,14.766,14.2l5.52,1.16c6.715,1.477,9.492,3.691,9.492,7.77v.035c0,4.746-4.289,7.8-11.074,7.8s-11.461-2.918-12.164-7.594l-.07-.457H439l.035.527C439.664,75.43,447.188,80.844,458.578,80.844Z" transform="translate(55 764)" fill="#f7f7f5" opacity="0.8"/><g transform="translate(267 -2656.5)" opacity="0.7"><line y1="29" x2="29" transform="translate(296.5 3469.5)" fill="none" stroke="#f7f7f5" stroke-linecap="round" stroke-width="5"/><line x2="29" transform="translate(296.5 3467.5)" fill="none" stroke="#f7f7f5" stroke-linecap="round" stroke-width="5"/><line x2="29" transform="translate(326 3468) rotate(90)" fill="none" stroke="#f7f7f5" stroke-linecap="round" stroke-width="5"/></g></g></svg>