<svg xmlns="http://www.w3.org/2000/svg" width="435.36" height="133.11" viewBox="0 0 435.36 133.11"><g transform="translate(-672.676 -712.426)"><path d="M4.676,0h7.875V-19.477H23.379L33.715,0h9.07L31.43-20.672c6.082-2.074,9.844-7.559,9.844-14.449v-.07c0-9.527-6.539-15.539-16.91-15.539H4.676Zm7.875-25.945V-44.121H23.379c6.047,0,9.773,3.375,9.773,9v.07c0,5.766-3.48,9.105-9.562,9.105ZM48.867,0h32.2V-6.785H56.742v-15.75H79.77v-6.609H56.742v-14.8H81.07V-50.73h-32.2Zm61.98.844c11.215,0,19.617-6.785,21.2-16.875l.035-.352h-7.8l-.105.316c-1.9,6.434-6.574,9.949-13.324,9.949-9.387,0-15.469-7.523-15.469-19.266v-.035c0-11.742,6.047-19.2,15.469-19.2,6.82,0,11.531,3.621,13.219,9.563l.211.7h7.8l-.07-.316c-1.582-10.02-9.984-16.91-21.164-16.91-14.379,0-23.52,10.055-23.52,26.156v.035C87.328-9.281,96.469.844,110.848.844ZM139.219,0h32.2V-6.785H147.094v-15.75h23.027v-6.609H147.094v-14.8h24.328V-50.73h-32.2Zm40.289,0h7.8V-37.582h.211L213.645,0h7.242V-50.73h-7.8v37.512h-.211L186.785-50.73h-7.277Zm63.316,0H250.7V-43.945h15.5V-50.73H227.285v6.785h15.539ZM25.242,80.844c12.762,0,20.5-7.559,20.5-18.668V29.27H37.9V61.543c0,7.383-4.57,12.34-12.656,12.34s-12.691-4.957-12.691-12.34V29.27H4.676V62.176C4.676,73.285,12.516,80.844,25.242,80.844ZM55.09,80h7.875V29.27H55.09Zm31.816,0H104.8c15.117,0,24.012-9.422,24.012-25.453v-.07c0-15.961-8.965-25.207-24.012-25.207H86.906Zm7.875-6.82V36.055h9.281c10.688,0,16.7,6.574,16.7,18.492v.07c0,11.988-5.941,18.563-16.7,18.563ZM136.336,80h32.2V73.215H144.211V57.465h23.027V50.855H144.211v-14.8h24.328V29.27h-32.2Zm57.586.844c12.023,0,19.336-5.871,19.336-15.117v-.035c0-7.84-4.5-12.094-14.977-14.309l-5.555-1.16c-6.328-1.371-9.211-3.691-9.211-7.488V42.7c0-4.43,4.008-7.418,10.3-7.453,6.012,0,10.09,2.848,10.793,7.559l.035.492h7.664l-.035-.6c-.527-8.508-7.77-14.273-18.352-14.273-10.723,0-18.352,5.941-18.387,14.59v.035c0,7.523,4.816,12.094,14.766,14.2l5.52,1.16c6.715,1.477,9.492,3.691,9.492,7.77v.035c0,4.746-4.289,7.8-11.074,7.8s-11.461-2.918-12.164-7.594l-.07-.457H174.34l.035.527C175.008,75.43,182.531,80.844,193.922,80.844Zm26.4-.844H228.2V29.27h-7.875Zm17.227,0h7.8V42.418h.211L271.688,80h7.242V29.27h-7.8V66.781h-.211L244.828,29.27h-7.277Zm72.563.844c13.746,0,21.867-8.191,21.867-21.937V53.7H311.1v6.434h13.113v.844c-.105,7.7-5.8,12.9-14.027,12.9-9.668,0-15.715-7.383-15.715-19.512v-.035c0-11.883,5.871-18.949,15.574-18.949,6.609,0,11.215,3.41,13.359,9.281l.105.387h8.086l-.141-.633c-2.109-9.141-9.562-16-21.445-16-14.414,0-23.555,9.949-23.555,25.945v.035C286.453,70.719,295.594,80.844,310.113,80.844Zm46.863,0c12.023,0,19.336-5.871,19.336-15.117v-.035c0-7.84-4.5-12.094-14.977-14.309l-5.555-1.16c-6.328-1.371-9.211-3.691-9.211-7.488V42.7c0-4.43,4.008-7.418,10.3-7.453,6.012,0,10.09,2.848,10.793,7.559l.035.492h7.664l-.035-.6c-.527-8.508-7.77-14.273-18.352-14.273-10.723,0-18.352,5.941-18.387,14.59v.035c0,7.523,4.816,12.094,14.766,14.2l5.52,1.16c6.715,1.477,9.492,3.691,9.492,7.77v.035c0,4.746-4.289,7.8-11.074,7.8s-11.461-2.918-12.164-7.594l-.07-.457h-7.664l.035.527C338.063,75.43,345.586,80.844,356.977,80.844Z" transform="translate(668 764)" fill="#f7f7f5" opacity="0.8"/><g transform="translate(779 -2656.5)" opacity="0.7"><line y1="29" x2="29" transform="translate(296.5 3469.5)" fill="none" stroke="#f7f7f5" stroke-linecap="round" stroke-width="5"/><line x2="29" transform="translate(296.5 3467.5)" fill="none" stroke="#f7f7f5" stroke-linecap="round" stroke-width="5"/><line x2="29" transform="translate(326 3468) rotate(90)" fill="none" stroke="#f7f7f5" stroke-linecap="round" stroke-width="5"/></g></g></svg>