<svg xmlns="http://www.w3.org/2000/svg" width="285.36" height="132.266" viewBox="0 0 285.36 132.266"><g transform="translate(-1284.676 -713.27)"><path d="M4.676,0h7.8V-37.582h.211L38.813,0h7.242V-50.73h-7.8v37.512h-.211L11.953-50.73H4.676Zm50.73,0h32.2V-6.785H63.281v-15.75H86.309v-6.609H63.281v-14.8H87.609V-50.73h-32.2Zm50.836,0H113.8l10.934-38.25h.176L135.809,0h7.559l13.711-50.73h-8.191L139.43-10.969h-.176L128.531-50.73h-7.453L110.355-10.969h-.141L100.758-50.73H92.566ZM4.676,80H25.031c10.793,0,17.3-5.414,17.3-14.344v-.07c0-6.715-4.676-11.672-11.883-12.375v-.176A11.244,11.244,0,0,0,39.832,42v-.07c0-7.664-5.906-12.656-14.906-12.656H4.676ZM23.027,35.7c5.66,0,8.93,2.566,8.93,7.207v.07c0,5.027-3.762,7.84-10.582,7.84H12.551V35.7Zm-.07,21.2c7.453,0,11.32,2.813,11.32,8.262v.07c0,5.484-3.8,8.332-10.863,8.332H12.551V56.9ZM49.113,80h31.5V73.215H56.988V29.27H49.113Zm58.078.844c14.66,0,23.766-10.09,23.766-26.191v-.07c0-16.066-9.141-26.156-23.766-26.156-14.59,0-23.766,10.055-23.766,26.156v.07C83.426,70.789,92.566,80.844,107.191,80.844Zm0-6.961c-9.633,0-15.75-7.418-15.75-19.23v-.07c0-11.812,6.152-19.2,15.75-19.2,9.633,0,15.715,7.418,15.715,19.2v.07C122.906,66.359,116.93,73.883,107.191,73.883Zm53.086,6.961c13.746,0,21.867-8.191,21.867-21.937V53.7H161.262v6.434h13.113v.844c-.105,7.7-5.8,12.9-14.027,12.9-9.668,0-15.715-7.383-15.715-19.512v-.035c0-11.883,5.871-18.949,15.574-18.949,6.609,0,11.215,3.41,13.359,9.281l.105.387h8.086l-.141-.633c-2.109-9.141-9.562-16-21.445-16-14.414,0-23.555,9.949-23.555,25.945v.035C136.617,70.719,145.758,80.844,160.277,80.844Zm46.863,0c12.023,0,19.336-5.871,19.336-15.117v-.035c0-7.84-4.5-12.094-14.977-14.309l-5.555-1.16c-6.328-1.371-9.211-3.691-9.211-7.488V42.7c0-4.43,4.008-7.418,10.3-7.453,6.012,0,10.09,2.848,10.793,7.559l.035.492h7.664l-.035-.6c-.527-8.508-7.77-14.273-18.352-14.273-10.723,0-18.352,5.941-18.387,14.59v.035c0,7.523,4.816,12.094,14.766,14.2l5.52,1.16c6.715,1.477,9.492,3.691,9.492,7.77v.035c0,4.746-4.289,7.8-11.074,7.8S196,71.105,195.293,66.43l-.07-.457h-7.664l.035.527C188.227,75.43,195.75,80.844,207.141,80.844Z" transform="translate(1280 764)" fill="#f7f7f5" opacity="0.8"/><g transform="translate(1241 -2656.5)" opacity="0.7"><line y1="29" x2="29" transform="translate(296.5 3469.5)" fill="none" stroke="#f7f7f5" stroke-linecap="round" stroke-width="5"/><line x2="29" transform="translate(296.5 3467.5)" fill="none" stroke="#f7f7f5" stroke-linecap="round" stroke-width="5"/><line x2="29" transform="translate(326 3468) rotate(90)" fill="none" stroke="#f7f7f5" stroke-linecap="round" stroke-width="5"/></g></g></svg>