<svg xmlns="http://www.w3.org/2000/svg" width="444.489" height="133.11" viewBox="0 0 444.489 133.11"><g transform="translate(-1281.547 -712.426)"><path d="M15.223,0h7.559L33.715-38.25h.176L44.789,0h7.559L66.059-50.73H57.867L48.41-10.969h-.176L37.512-50.73H30.059L19.336-10.969H19.2L9.738-50.73H1.547ZM63.879,0h8.262l4.605-13.711H96.117L100.723,0h8.3L90.7-50.73H82.2ZM86.344-42.328h.176l7.488,22.289H78.855ZM120.234,0h7.875V-43.945h15.5V-50.73H104.7v6.785h15.539ZM168.68.844c11.215,0,19.617-6.785,21.2-16.875l.035-.352h-7.8l-.105.316c-1.9,6.434-6.574,9.949-13.324,9.949-9.387,0-15.469-7.523-15.469-19.266v-.035c0-11.742,6.047-19.2,15.469-19.2,6.82,0,11.531,3.621,13.219,9.563l.211.7h7.8l-.07-.316c-1.582-10.02-9.984-16.91-21.164-16.91-14.379,0-23.52,10.055-23.52,26.156v.035C145.16-9.281,154.3.844,168.68.844ZM197.051,0h7.875V-22.465h26.051V0h7.875V-50.73h-7.875v21.445H204.926V-50.73h-7.875ZM4.676,80h7.875V29.27H4.676ZM21.9,80h7.8V42.418h.211L56.039,80h7.242V29.27h-7.8V66.781h-.211L29.18,29.27H21.9Zm63.316,0h7.875V36.055h15.5V29.27H69.68v6.785H85.219ZM115,80h7.875V60.523H133.7L144.035,80h9.07L141.75,59.328c6.082-2.074,9.844-7.559,9.844-14.449v-.07c0-9.527-6.539-15.539-16.91-15.539H115Zm7.875-25.945V35.879H133.7c6.047,0,9.773,3.375,9.773,9v.07c0,5.766-3.48,9.105-9.562,9.105Zm58.254,26.789c14.66,0,23.766-10.09,23.766-26.191v-.07c0-16.066-9.141-26.156-23.766-26.156-14.59,0-23.766,10.055-23.766,26.156v.07C157.359,70.789,166.5,80.844,181.125,80.844Zm0-6.961c-9.633,0-15.75-7.418-15.75-19.23v-.07c0-11.812,6.152-19.2,15.75-19.2,9.633,0,15.715,7.418,15.715,19.2v.07C196.84,66.359,190.863,73.883,181.125,73.883ZM226.969,80h7.875V60.523h10.828L256.008,80h9.07L253.723,59.328c6.082-2.074,9.844-7.559,9.844-14.449v-.07c0-9.527-6.539-15.539-16.91-15.539H226.969Zm7.875-25.945V35.879h10.828c6.047,0,9.773,3.375,9.773,9v.07c0,5.766-3.48,9.105-9.562,9.105ZM271.16,80h32.2V73.215H279.035V57.465h23.027V50.855H279.035v-14.8h24.328V29.27h-32.2Zm40.289,0h32.2V73.215H319.324V57.465h23.027V50.855H319.324v-14.8h24.328V29.27h-32.2Zm40.289,0h31.5V73.215H359.613V29.27h-7.875Z" transform="translate(1280 764)" fill="#f7f7f5" opacity="0.8"/><g transform="translate(1397 -2656.5)" opacity="0.7"><line y1="29" x2="29" transform="translate(296.5 3469.5)" fill="none" stroke="#f7f7f5" stroke-linecap="round" stroke-width="5"/><line x2="29" transform="translate(296.5 3467.5)" fill="none" stroke="#f7f7f5" stroke-linecap="round" stroke-width="5"/><line x2="29" transform="translate(326 3468) rotate(90)" fill="none" stroke="#f7f7f5" stroke-linecap="round" stroke-width="5"/></g></g></svg>