<svg xmlns="http://www.w3.org/2000/svg" width="408.36" height="132.266" viewBox="0 0 408.36 132.266"><g transform="translate(-1284.676 -713.27)"><path d="M4.676,0h31.5V-6.785H12.551V-50.73H4.676Zm38.25,0H50.8V-50.73H42.926ZM74.461,0h8.684l18.07-50.73H92.742L78.891-8.754h-.176L64.863-50.73H56.391ZM106.8,0h32.2V-6.785H114.68v-15.75h23.027v-6.609H114.68v-14.8h24.328V-50.73H106.8ZM4.676,80h7.875V62.668h11c9.949,0,16.84-6.785,16.84-16.7V45.9c0-9.949-6.891-16.629-16.84-16.629H4.676Zm16.91-44.086c6.855,0,10.793,3.691,10.793,10.02V46c0,6.363-3.937,10.055-10.793,10.055H12.551V35.914ZM47.285,80H55.16V60.523H65.988L76.324,80h9.07L74.039,59.328c6.082-2.074,9.844-7.559,9.844-14.449v-.07c0-9.527-6.539-15.539-16.91-15.539H47.285ZM55.16,54.055V35.879H65.988c6.047,0,9.773,3.375,9.773,9v.07c0,5.766-3.48,9.105-9.562,9.105Zm58.254,26.789c14.66,0,23.766-10.09,23.766-26.191v-.07c0-16.066-9.141-26.156-23.766-26.156-14.59,0-23.766,10.055-23.766,26.156v.07C89.648,70.789,98.789,80.844,113.414,80.844Zm0-6.961c-9.633,0-15.75-7.418-15.75-19.23v-.07c0-11.812,6.152-19.2,15.75-19.2,9.633,0,15.715,7.418,15.715,19.2v.07C129.129,66.359,123.152,73.883,113.414,73.883Zm43.242,6.961c9.949,0,15.82-5.871,15.82-15.855V29.27H164.6V64.918c0,5.8-2.812,8.895-8.016,8.895-4.711,0-7.137-3.023-7.453-6.891l-.035-.316h-7.77l.035.422C141.785,75.113,147.27,80.844,156.656,80.844ZM181.934,80h32.2V73.215H189.809V57.465h23.027V50.855H189.809v-14.8h24.328V29.27h-32.2Zm61.98.844c11.215,0,19.617-6.785,21.2-16.875l.035-.352h-7.8l-.105.316c-1.9,6.434-6.574,9.949-13.324,9.949-9.387,0-15.469-7.523-15.469-19.266v-.035c0-11.742,6.047-19.2,15.469-19.2,6.82,0,11.531,3.621,13.219,9.563l.211.7h7.8l-.07-.316c-1.582-10.02-9.984-16.91-21.164-16.91-14.379,0-23.52,10.055-23.52,26.156v.035C220.395,70.719,229.535,80.844,243.914,80.844ZM282.727,80H290.6V36.055h15.5V29.27H267.188v6.785h15.539Zm47.074.844c12.023,0,19.336-5.871,19.336-15.117v-.035c0-7.84-4.5-12.094-14.977-14.309l-5.555-1.16c-6.328-1.371-9.211-3.691-9.211-7.488V42.7c0-4.43,4.008-7.418,10.3-7.453,6.012,0,10.09,2.848,10.793,7.559l.035.492h7.664l-.035-.6c-.527-8.508-7.77-14.273-18.352-14.273-10.723,0-18.352,5.941-18.387,14.59v.035c0,7.523,4.816,12.094,14.766,14.2l5.52,1.16c6.715,1.477,9.492,3.691,9.492,7.77v.035c0,4.746-4.289,7.8-11.074,7.8s-11.461-2.918-12.164-7.594l-.07-.457h-7.664l.035.527C310.887,75.43,318.41,80.844,329.8,80.844Z" transform="translate(1280 764)" fill="#f7f7f5" opacity="0.8"/><g transform="translate(1364 -2656.5)" opacity="0.7"><line y1="29" x2="29" transform="translate(296.5 3469.5)" fill="none" stroke="#f7f7f5" stroke-linecap="round" stroke-width="5"/><line x2="29" transform="translate(296.5 3467.5)" fill="none" stroke="#f7f7f5" stroke-linecap="round" stroke-width="5"/><line x2="29" transform="translate(326 3468) rotate(90)" fill="none" stroke="#f7f7f5" stroke-linecap="round" stroke-width="5"/></g></g></svg>