<svg xmlns="http://www.w3.org/2000/svg" xmlns:xlink="http://www.w3.org/1999/xlink" width="1634.779" height="783.162" viewBox="0 0 1634.779 783.162"><defs><linearGradient id="a" x1="0.5" x2="0.5" y2="1" gradientUnits="objectBoundingBox"><stop offset="0" stop-color="#b93e48"/><stop offset="0.117" stop-color="#922f37"/><stop offset="0.265" stop-color="#b93e48"/><stop offset="0.411" stop-color="#922f37"/><stop offset="0.521" stop-color="#922f37"/><stop offset="0.793" stop-color="#b93e48"/><stop offset="1" stop-color="#922f37"/><stop offset="1" stop-color="#b93e48"/><stop offset="1" stop-color="#b43c46"/><stop offset="1" stop-color="#5d1f24"/></linearGradient><filter id="b" x="1170.428" y="0" width="464.352" height="465.795" filterUnits="userSpaceOnUse"><feOffset dx="20" dy="20" input="SourceAlpha"/><feGaussianBlur stdDeviation="20" result="c"/><feFlood flood-opacity="0.251"/><feComposite operator="in" in2="c"/><feComposite in="SourceGraphic"/></filter></defs><g transform="translate(-11682 -5674)"><g transform="translate(-605 -122.338)"><path d="M-321-77q44.5,0,79.5-15a166.738,166.738,0,0,0,59.25-42q24.25-27,37-64.5T-132.5-281V-716.5H-36V-281q0,62-19.75,115t-56.5,91.75Q-149-35.5-202-13.5t-119,22q-66,0-119-22t-90-60.75Q-567-113-586.75-166T-606.5-281V-716.5H-510v435q0,45,12.75,82.5t37,64.5q24.25,27,59.5,42.25T-321-77ZM297-368,60.5-716.5H157q10.5,0,15.5,3.5a33.144,33.144,0,0,1,9,10l187,287A135.542,135.542,0,0,1,379-439L555.5-701a46.967,46.967,0,0,1,9.75-11.25A19.617,19.617,0,0,1,578-716.5h92.5L433-372.5,678.5,0h-96q-11,0-17.25-5.75A53.054,53.054,0,0,1,555-18.5L363-319a107.924,107.924,0,0,1-9,20L167-18.5A76.359,76.359,0,0,1,156.75-5.75Q151,0,140.5,0h-90Z" transform="translate(13064.5 6569.5)" fill="none" stroke="#2a2a2a" stroke-width="3"/><g transform="matrix(1, 0, 0, 1, 12287, 5796.34)" filter="url(#b)"><path d="M123.5,0c34.99,0,70.842,32.632,93.44,56.144C238.147,78.21,247,90.283,247,123.5c0,21.008,10.368,50.6.971,68.186C227.328,230.329,170.7,247,123.5,247c-35.672,0-74.167-3.738-96.829-28.049C6.226,197.018,0,156.035,0,123.5,0,88.783,4.415,45.013,27.7,22.357,49.723.932,90.01,0,123.5,0Z" transform="matrix(0.54, -0.84, 0.84, 0.54, 1210.43, 251.27)" fill="url(#a)"/></g></g><rect width="171" height="10" transform="translate(11682 5747)" fill="rgba(255,255,255,0)"/></g></svg>