<svg xmlns="http://www.w3.org/2000/svg" width="151.482" height="55" viewBox="0 0 151.482 55"><g transform="translate(-7328.658 -935.866)"><path d="M15.3-104.585q6.786,0,10.093,3.083T28.7-92.667A12.9,12.9,0,0,1,27.083-86.1a10.954,10.954,0,0,1-4.7,4.357,16.286,16.286,0,0,1-7.389,1.55q-.827,0-2.36-.052T9.963-80.3q-1.516,0-2.98.017T4.658-80.2v-.689a6.082,6.082,0,0,0,1.653-.276,1.2,1.2,0,0,0,.741-.827,6.811,6.811,0,0,0,.189-1.86v-17.085a6.783,6.783,0,0,0-.189-1.877,1.241,1.241,0,0,0-.758-.827,5.11,5.11,0,0,0-1.636-.258v-.689q.861.034,2.325.086t2.911.017q1.24-.034,2.807-.069T15.3-104.585Zm-.034.62a2.671,2.671,0,0,0-2.067.586A4.02,4.02,0,0,0,12.718-101v17.223a3.908,3.908,0,0,0,.5,2.377,2.735,2.735,0,0,0,2.084.586,7.023,7.023,0,0,0,4.564-1.361,7.538,7.538,0,0,0,2.394-3.979,24.228,24.228,0,0,0,.723-6.373q0-5.787-1.791-8.612T15.267-103.965Zm27.97,5.477a3.143,3.143,0,0,1,1.791.465,2.816,2.816,0,0,1,1.016,1.188,3.636,3.636,0,0,1,.327,1.516,2.967,2.967,0,0,1-.741,2.084,2.513,2.513,0,0,1-1.946.809,2.712,2.712,0,0,1-1.877-.6,2.047,2.047,0,0,1-.672-1.6,2.8,2.8,0,0,1,.431-1.6,4.064,4.064,0,0,1,1.085-1.085,1.542,1.542,0,0,0-.964.034,2.844,2.844,0,0,0-1.6.844,5.272,5.272,0,0,0-1.119,1.671,4.787,4.787,0,0,0-.413,1.895v9.128a2.609,2.609,0,0,0,.809,2.239,4.139,4.139,0,0,0,2.428.586v.723q-.792-.034-2.308-.086t-3.169-.052q-1.378,0-2.79.052t-2.136.086v-.723a2.311,2.311,0,0,0,1.705-.517,2.867,2.867,0,0,0,.5-1.963V-94.251a4.41,4.41,0,0,0-.465-2.291,1.892,1.892,0,0,0-1.74-.741v-.723q1.1.1,2.136.1,1.447,0,2.7-.121a18.67,18.67,0,0,0,2.325-.362v3.2a6.294,6.294,0,0,1,1.1-1.688,5.132,5.132,0,0,1,1.585-1.188A4.551,4.551,0,0,1,43.238-98.488Zm21.736.1v14.433a4.279,4.279,0,0,0,.482,2.291,1.9,1.9,0,0,0,1.722.741v.723q-1.068-.1-2.136-.1-1.447,0-2.687.1a14.675,14.675,0,0,0-2.342.379v-3.1a5.116,5.116,0,0,1-2.291,2.463,7.107,7.107,0,0,1-3.255.741,6.088,6.088,0,0,1-2.342-.379,3.841,3.841,0,0,1-1.412-.965,3.778,3.778,0,0,1-.827-1.722,12.889,12.889,0,0,1-.241-2.756v-8.715a4.41,4.41,0,0,0-.465-2.291,1.892,1.892,0,0,0-1.74-.741v-.723q1.1.1,2.136.1,1.447,0,2.7-.121a18.669,18.669,0,0,0,2.325-.362v14.261a6.619,6.619,0,0,0,.155,1.516,1.787,1.787,0,0,0,.6,1.016,2.044,2.044,0,0,0,1.309.362,3,3,0,0,0,2.36-1.154,4.235,4.235,0,0,0,.982-2.842v-9.025a4.41,4.41,0,0,0-.465-2.291,1.892,1.892,0,0,0-1.74-.741v-.723q1.1.1,2.136.1,1.447,0,2.7-.121A18.67,18.67,0,0,0,64.974-98.385Zm11.057-8.749v11.85a5.064,5.064,0,0,1,2.325-2.5,7.475,7.475,0,0,1,3.29-.706,6.465,6.465,0,0,1,2.377.362,3.5,3.5,0,0,1,1.412.982,3.9,3.9,0,0,1,.844,1.688,11.974,11.974,0,0,1,.258,2.79V-83.4a2.867,2.867,0,0,0,.5,1.963,2.311,2.311,0,0,0,1.705.517v.723q-.654-.034-1.981-.086t-2.566-.052q-1.343,0-2.6.052t-1.877.086v-.723a1.757,1.757,0,0,0,1.447-.517,3.315,3.315,0,0,0,.413-1.963V-94.113a5.782,5.782,0,0,0-.172-1.5,1.825,1.825,0,0,0-.637-1,2.12,2.12,0,0,0-1.326-.362,3.139,3.139,0,0,0-2.411,1.1,4.094,4.094,0,0,0-1,2.859V-83.4a3.315,3.315,0,0,0,.413,1.963,1.757,1.757,0,0,0,1.447.517v.723q-.62-.034-1.826-.086t-2.446-.052q-1.343,0-2.7.052t-2.05.086v-.723a2.311,2.311,0,0,0,1.705-.517,2.867,2.867,0,0,0,.5-1.963V-103a4.41,4.41,0,0,0-.465-2.291,1.892,1.892,0,0,0-1.74-.741v-.723q1.1.1,2.136.1,1.412,0,2.687-.121A18.625,18.625,0,0,0,76.031-107.134Zm18.773.241a3.458,3.458,0,0,1,2.291.706,2.4,2.4,0,0,1,.844,1.946,2.4,2.4,0,0,1-.844,1.946,3.458,3.458,0,0,1-2.291.706,3.458,3.458,0,0,1-2.291-.706,2.4,2.4,0,0,1-.844-1.946,2.4,2.4,0,0,1,.844-1.946A3.458,3.458,0,0,1,94.8-106.893Zm2.687,8.508V-83.4a2.867,2.867,0,0,0,.5,1.963,2.311,2.311,0,0,0,1.705.517v.723q-.62-.034-1.929-.086t-2.652-.052q-1.343,0-2.721.052t-2.067.086v-.723a2.311,2.311,0,0,0,1.705-.517,2.867,2.867,0,0,0,.5-1.963V-94.251a4.41,4.41,0,0,0-.465-2.291,1.892,1.892,0,0,0-1.74-.741v-.723q1.1.1,2.136.1,1.447,0,2.7-.121A18.669,18.669,0,0,0,97.491-98.385Zm16.844-.1a6.491,6.491,0,0,1,2.36.362,3.485,3.485,0,0,1,1.43.982,4.135,4.135,0,0,1,.81,1.688,11.973,11.973,0,0,1,.258,2.79V-83.4a2.867,2.867,0,0,0,.5,1.963,2.311,2.311,0,0,0,1.705.517v.723q-.654-.034-1.963-.086t-2.584-.052q-1.309,0-2.566.052t-1.912.086v-.723a1.757,1.757,0,0,0,1.447-.517,3.315,3.315,0,0,0,.413-1.963V-94.113a5.782,5.782,0,0,0-.172-1.5,1.866,1.866,0,0,0-.62-1,2.108,2.108,0,0,0-1.343-.362,3.084,3.084,0,0,0-2.428,1.137,4.218,4.218,0,0,0-.982,2.859V-83.4a3.209,3.209,0,0,0,.431,1.963,1.765,1.765,0,0,0,1.429.517v.723q-.62-.034-1.808-.086t-2.463-.052q-1.309,0-2.687.052t-2.067.086v-.723a2.311,2.311,0,0,0,1.705-.517,2.867,2.867,0,0,0,.5-1.963V-94.251a4.41,4.41,0,0,0-.465-2.291,1.892,1.892,0,0,0-1.74-.741v-.723q1.1.1,2.136.1,1.447,0,2.7-.121a18.669,18.669,0,0,0,2.325-.362v3.1a5.149,5.149,0,0,1,2.342-2.48A7.435,7.435,0,0,1,114.335-98.488Z" transform="translate(7324 1043)" fill="#d6d2cd"/><path d="M20.355-86.348q-.114,1.449-.156,2.784t-.043,2.046q0,.625.028,1.193t.057.966h-.653a14.863,14.863,0,0,0-1.151-3.779,4.634,4.634,0,0,0-1.662-1.975,4.317,4.317,0,0,0-2.273-.582h-.653v16.223a4.581,4.581,0,0,0,.242,1.7,1.293,1.293,0,0,0,.895.753,8.118,8.118,0,0,0,1.9.213v.568q-.881-.028-2.344-.057t-3.054-.028q-1.563,0-2.955.028t-2.245.057V-66.8a8.264,8.264,0,0,0,1.932-.213,1.251,1.251,0,0,0,.881-.753,4.844,4.844,0,0,0,.227-1.7V-85.695H8.706a4.317,4.317,0,0,0-2.273.582,4.558,4.558,0,0,0-1.648,1.96,16.513,16.513,0,0,0-1.193,3.793H2.939a8.472,8.472,0,0,0,.071-.966q.014-.568.014-1.193,0-.71-.043-2.046t-.156-2.784q1.307.028,2.855.057t3.111.028h5.64q1.548,0,3.111-.028T20.355-86.348Zm4.716,20.315a3.446,3.446,0,0,1-2.756-.994,3.584,3.584,0,0,1-.852-2.415,3.317,3.317,0,0,1,.554-1.989A4.42,4.42,0,0,1,23.452-72.7a10.582,10.582,0,0,1,1.861-.824q.98-.327,1.875-.653a5.429,5.429,0,0,0,1.449-.753,1.308,1.308,0,0,0,.554-1.08v-2.216a3.422,3.422,0,0,0-.242-1.321,1.87,1.87,0,0,0-.739-.895,2.4,2.4,0,0,0-1.293-.313,4.269,4.269,0,0,0-1.136.156,2.073,2.073,0,0,0-.938.526,2.594,2.594,0,0,1,1.236.867,2.134,2.134,0,0,1,.44,1.321,1.911,1.911,0,0,1-.668,1.534,2.356,2.356,0,0,1-1.577.568,1.888,1.888,0,0,1-1.548-.639,2.359,2.359,0,0,1-.526-1.548,2.183,2.183,0,0,1,.412-1.364,4.578,4.578,0,0,1,1.151-1.023,6.986,6.986,0,0,1,1.918-.71,10.927,10.927,0,0,1,2.429-.256,9.493,9.493,0,0,1,2.358.27,3.758,3.758,0,0,1,1.762.98,3.118,3.118,0,0,1,.852,1.605,12.04,12.04,0,0,1,.2,2.4v7.728a2.341,2.341,0,0,0,.142.966.5.5,0,0,0,.483.284,1.1,1.1,0,0,0,.54-.142,2.789,2.789,0,0,0,.483-.341l.284.483a4.2,4.2,0,0,1-1.378.781,5.328,5.328,0,0,1-1.747.27,2.817,2.817,0,0,1-2.259-.7,2.643,2.643,0,0,1-.582-1.605A4.708,4.708,0,0,1,27.5-66.6,4.977,4.977,0,0,1,25.072-66.034Zm2.188-1.818a2.074,2.074,0,0,0,1.009-.256,2.868,2.868,0,0,0,.923-.909v-5.824a2.857,2.857,0,0,1-.952.952q-.611.384-1.25.824a3.772,3.772,0,0,0-1.065,1.122,3.4,3.4,0,0,0-.426,1.818,2.454,2.454,0,0,0,.511,1.747A1.677,1.677,0,0,0,27.259-67.852ZM46.1-81.319a2.592,2.592,0,0,1,1.477.384,2.322,2.322,0,0,1,.838.98,3,3,0,0,1,.27,1.25,2.447,2.447,0,0,1-.611,1.719,2.073,2.073,0,0,1-1.605.668,2.237,2.237,0,0,1-1.548-.5,1.689,1.689,0,0,1-.554-1.321,2.309,2.309,0,0,1,.355-1.321,3.352,3.352,0,0,1,.895-.895,1.272,1.272,0,0,0-.8.028,2.346,2.346,0,0,0-1.321.7,4.349,4.349,0,0,0-.923,1.378,3.948,3.948,0,0,0-.341,1.563v7.529a2.152,2.152,0,0,0,.668,1.847,3.414,3.414,0,0,0,2,.483v.6q-.653-.028-1.9-.071t-2.614-.043q-1.136,0-2.3.043t-1.762.071v-.6a1.907,1.907,0,0,0,1.406-.426,2.365,2.365,0,0,0,.412-1.619v-8.95a3.637,3.637,0,0,0-.384-1.889,1.561,1.561,0,0,0-1.435-.611v-.6q.909.085,1.762.085,1.193,0,2.23-.1a15.4,15.4,0,0,0,1.918-.3v2.642a5.192,5.192,0,0,1,.909-1.392,4.234,4.234,0,0,1,1.307-.98A3.754,3.754,0,0,1,46.1-81.319Zm7.529,15.286a3.446,3.446,0,0,1-2.756-.994,3.584,3.584,0,0,1-.852-2.415,3.317,3.317,0,0,1,.554-1.989A4.42,4.42,0,0,1,52.006-72.7a10.583,10.583,0,0,1,1.861-.824q.98-.327,1.875-.653a5.429,5.429,0,0,0,1.449-.753,1.308,1.308,0,0,0,.554-1.08v-2.216a3.422,3.422,0,0,0-.241-1.321,1.87,1.87,0,0,0-.739-.895,2.4,2.4,0,0,0-1.293-.313,4.269,4.269,0,0,0-1.136.156,2.073,2.073,0,0,0-.938.526,2.594,2.594,0,0,1,1.236.867,2.134,2.134,0,0,1,.44,1.321,1.911,1.911,0,0,1-.668,1.534,2.355,2.355,0,0,1-1.577.568,1.888,1.888,0,0,1-1.548-.639,2.359,2.359,0,0,1-.526-1.548,2.183,2.183,0,0,1,.412-1.364,4.578,4.578,0,0,1,1.151-1.023,6.986,6.986,0,0,1,1.918-.71,10.927,10.927,0,0,1,2.429-.256,9.493,9.493,0,0,1,2.358.27,3.758,3.758,0,0,1,1.762.98,3.118,3.118,0,0,1,.852,1.605,12.039,12.039,0,0,1,.2,2.4v7.728a2.341,2.341,0,0,0,.142.966.5.5,0,0,0,.483.284,1.1,1.1,0,0,0,.54-.142,2.789,2.789,0,0,0,.483-.341l.284.483a4.2,4.2,0,0,1-1.378.781,5.328,5.328,0,0,1-1.747.27,2.817,2.817,0,0,1-2.259-.7,2.643,2.643,0,0,1-.582-1.605A4.708,4.708,0,0,1,56.055-66.6,4.978,4.978,0,0,1,53.626-66.034Zm2.188-1.818a2.074,2.074,0,0,0,1.009-.256,2.868,2.868,0,0,0,.923-.909v-5.824a2.857,2.857,0,0,1-.952.952q-.611.384-1.25.824a3.772,3.772,0,0,0-1.065,1.122,3.4,3.4,0,0,0-.426,1.818,2.454,2.454,0,0,0,.511,1.747A1.677,1.677,0,0,0,55.813-67.852Zm16.564-20.6a5.3,5.3,0,0,1,1.733.256,4.751,4.751,0,0,1,1.307.682,2.57,2.57,0,0,1,.682.867,2.732,2.732,0,0,1,.284,1.264,1.948,1.948,0,0,1-.554,1.364,1.9,1.9,0,0,1-1.463.6,2.252,2.252,0,0,1-1.548-.54,1.87,1.87,0,0,1-.611-1.477,2.12,2.12,0,0,1,.426-1.307,2.247,2.247,0,0,1,1.25-.8.657.657,0,0,0-.341-.284,1.7,1.7,0,0,0-.682-.114,1.965,1.965,0,0,0-.938.2,1.638,1.638,0,0,0-.6.54,2.735,2.735,0,0,0-.426,1.236,19.643,19.643,0,0,0-.114,2.486v2.585h3.04v.568h-3.04v11.166A2.081,2.081,0,0,0,71.5-67.3a3.531,3.531,0,0,0,1.96.469v.6q-.739-.028-2.074-.071t-2.813-.043q-1.08,0-2.117.043t-1.577.071v-.6a1.907,1.907,0,0,0,1.406-.426,2.364,2.364,0,0,0,.412-1.619v-11.45H64.763v-.568H66.7a14.154,14.154,0,0,1,.4-3.85,5.25,5.25,0,0,1,1.392-2.287,5.111,5.111,0,0,1,1.662-1.009A5.986,5.986,0,0,1,72.378-88.451Zm16.252-.028v19.121a3.53,3.53,0,0,0,.4,1.889,1.566,1.566,0,0,0,1.421.611v.6q-.881-.085-1.762-.085-1.193,0-2.23.085a11.425,11.425,0,0,0-1.918.313V-85.07a3.638,3.638,0,0,0-.384-1.889,1.561,1.561,0,0,0-1.435-.611v-.6q.909.085,1.762.085,1.165,0,2.216-.1A15.369,15.369,0,0,0,88.629-88.479Zm-7.245,7.16a5.5,5.5,0,0,1,2.2.412,3.088,3.088,0,0,1,1.492,1.378l-.341.313a2.226,2.226,0,0,0-.98-.98,2.908,2.908,0,0,0-1.293-.3,2.574,2.574,0,0,0-2.3,1.691,11.9,11.9,0,0,0-.824,5.214,18.051,18.051,0,0,0,.327,3.85,4.308,4.308,0,0,0,.938,2.06,1.912,1.912,0,0,0,1.406.625,2.392,2.392,0,0,0,1.733-.767,3,3,0,0,0,.824-2.074l.142.994a4.411,4.411,0,0,1-1.378,2.287,3.792,3.792,0,0,1-2.486.781,5.547,5.547,0,0,1-3-.824,5.385,5.385,0,0,1-2.06-2.543,11.37,11.37,0,0,1-.739-4.446,9.748,9.748,0,0,1,.824-4.276,5.829,5.829,0,0,1,2.259-2.543A6.247,6.247,0,0,1,81.384-81.319Zm17.871,0a5.183,5.183,0,0,1,3.921,1.477q1.421,1.477,1.421,4.83H95.249l-.057-.54h5.824a13.793,13.793,0,0,0-.17-2.571,5.452,5.452,0,0,0-.625-1.889,1.284,1.284,0,0,0-1.136-.71,1.994,1.994,0,0,0-1.691,1.25,10.09,10.09,0,0,0-.838,4.148l.085.17q-.028.341-.043.71t-.014.767a7.768,7.768,0,0,0,.554,3.182,4.017,4.017,0,0,0,1.406,1.776,3.149,3.149,0,0,0,1.733.554,4.817,4.817,0,0,0,1.861-.426,4.406,4.406,0,0,0,1.889-1.847l.511.17a7.4,7.4,0,0,1-1.08,2.1,5.92,5.92,0,0,1-1.875,1.676,5.384,5.384,0,0,1-2.728.653,6.883,6.883,0,0,1-3.409-.824,5.666,5.666,0,0,1-2.316-2.5,9.513,9.513,0,0,1-.838-4.262,9.671,9.671,0,0,1,.895-4.4,6,6,0,0,1,2.472-2.628A7.339,7.339,0,0,1,99.255-81.319Zm16.877,0a2.592,2.592,0,0,1,1.477.384,2.323,2.323,0,0,1,.838.98,3,3,0,0,1,.27,1.25,2.447,2.447,0,0,1-.611,1.719,2.073,2.073,0,0,1-1.605.668,2.237,2.237,0,0,1-1.548-.5,1.689,1.689,0,0,1-.554-1.321,2.309,2.309,0,0,1,.355-1.321,3.352,3.352,0,0,1,.895-.895,1.272,1.272,0,0,0-.8.028,2.346,2.346,0,0,0-1.321.7,4.349,4.349,0,0,0-.923,1.378,3.948,3.948,0,0,0-.341,1.563v7.529a2.152,2.152,0,0,0,.668,1.847,3.414,3.414,0,0,0,2,.483v.6q-.654-.028-1.9-.071t-2.614-.043q-1.136,0-2.3.043t-1.762.071v-.6a1.906,1.906,0,0,0,1.406-.426,2.364,2.364,0,0,0,.412-1.619v-8.95a3.638,3.638,0,0,0-.384-1.889,1.561,1.561,0,0,0-1.435-.611v-.6q.909.085,1.762.085,1.193,0,2.23-.1a15.4,15.4,0,0,0,1.918-.3v2.642a5.192,5.192,0,0,1,.909-1.392,4.234,4.234,0,0,1,1.307-.98A3.754,3.754,0,0,1,116.132-81.319Z" transform="translate(7361.422 1056.701)" fill="#d6d2cd"/></g></svg>