<svg xmlns="http://www.w3.org/2000/svg" width="149.923" height="150" viewBox="0 0 149.923 150"><g transform="translate(-114.161 -237.27)"><g transform="translate(114.161 237.27)"><path d="M172.837,285.362a.6.6,0,0,1,.016.255.361.361,0,0,1-.114.193.553.553,0,0,1-.281.129q-.183.036-.426.1a3.175,3.175,0,0,0-.524.191,2.157,2.157,0,0,0-.57.4,2.074,2.074,0,0,0-.4.5,1.329,1.329,0,0,0-.163.487.972.972,0,0,0,.056.457,1.221,1.221,0,0,0,.26.4.82.82,0,0,0,.509.27,1.529,1.529,0,0,0,.609-.064,4.5,4.5,0,0,0,.69-.273q.364-.177.753-.356a7.579,7.579,0,0,1,.8-.311,2.732,2.732,0,0,1,.818-.138,2.1,2.1,0,0,1,.824.163,2.383,2.383,0,0,1,.81.588,3.209,3.209,0,0,1,.657,1,2.731,2.731,0,0,1,.2,1.13,2.973,2.973,0,0,1-.292,1.164,3.733,3.733,0,0,1-.833,1.114,4.422,4.422,0,0,1-.694.539,4.627,4.627,0,0,1-.77.389,4.451,4.451,0,0,1-.8.232,3.6,3.6,0,0,1-.794.061l-.2-.952a.543.543,0,0,1,.017-.225.421.421,0,0,1,.116-.2.618.618,0,0,1,.343-.143q.226-.033.523-.093a3.485,3.485,0,0,0,.638-.2,2.3,2.3,0,0,0,.69-.473,1.7,1.7,0,0,0,.589-1.043,1.261,1.261,0,0,0-.4-1.009.938.938,0,0,0-.545-.308,1.482,1.482,0,0,0-.621.052,3.654,3.654,0,0,0-.683.28q-.355.186-.733.368a6.78,6.78,0,0,1-.782.317,2.545,2.545,0,0,1-.822.133,2.13,2.13,0,0,1-.851-.191,2.754,2.754,0,0,1-.87-.651,2.573,2.573,0,0,1-.7-1.885,2.882,2.882,0,0,1,.279-1.09,3.5,3.5,0,0,1,.788-1.058,4.336,4.336,0,0,1,1.279-.858,3.425,3.425,0,0,1,1.355-.293Z" transform="translate(-146.529 -265.189)" fill="#f0ebe6"/><path d="M192.363,275.749a.344.344,0,0,1,.266-.063l.99.181a3.748,3.748,0,0,1-.467,1.7,4.8,4.8,0,0,1-1.362,1.492,4.694,4.694,0,0,1-1.7.837,4.1,4.1,0,0,1-1.72.062,4.3,4.3,0,0,1-1.623-.663,5.652,5.652,0,0,1-1.4-1.34,5.319,5.319,0,0,1-.887-1.736,4.414,4.414,0,0,1-.15-1.767,4.273,4.273,0,0,1,.569-1.657,4.816,4.816,0,0,1,1.281-1.4,4.582,4.582,0,0,1,1.643-.817,4.309,4.309,0,0,1,1.6-.107l.021.991a.534.534,0,0,1-.024.187.373.373,0,0,1-.143.179.42.42,0,0,1-.192.076q-.115.018-.261.027c-.1.007-.208.016-.333.029a2.277,2.277,0,0,0-.4.083,3.029,3.029,0,0,0-.474.188,3.417,3.417,0,0,0-.55.345,2.861,2.861,0,0,0-.779.864,2.487,2.487,0,0,0-.326,1.05,2.968,2.968,0,0,0,.156,1.171,4.308,4.308,0,0,0,.669,1.232,4.073,4.073,0,0,0,1.017.983,3.073,3.073,0,0,0,1.1.461,2.577,2.577,0,0,0,1.1-.026,2.767,2.767,0,0,0,1.018-.488,4.774,4.774,0,0,0,.488-.415,2.754,2.754,0,0,0,.348-.415,2.359,2.359,0,0,0,.235-.447,2.847,2.847,0,0,0,.147-.517.591.591,0,0,1,.052-.156A.322.322,0,0,1,192.363,275.749Z" transform="translate(-155.634 -256.885)" fill="#f0ebe6"/><path d="M210.682,266.815l-1.356.779a.686.686,0,0,1-.731.02L205.416,266a.686.686,0,0,0-.328-.086.847.847,0,0,0-.373.132l-.642.368,1.811,3.153-1.5.862-4.635-8.067,2.46-1.413a5.892,5.892,0,0,1,1.506-.639,3.116,3.116,0,0,1,1.239-.078,2.158,2.158,0,0,1,.977.415,2.942,2.942,0,0,1,1.041,1.677,2.568,2.568,0,0,1,.032.857,2.687,2.687,0,0,1-.26.839,3.227,3.227,0,0,1-.554.786,1.719,1.719,0,0,1,.382.044,1.634,1.634,0,0,1,.378.143Zm-6.29-2.011a2.69,2.69,0,0,0,.679-.531,1.651,1.651,0,0,0,.351-.591,1.349,1.349,0,0,0,.049-.618,1.761,1.761,0,0,0-.223-.621,1.322,1.322,0,0,0-.946-.71,2.232,2.232,0,0,0-1.425.381l-.96.552,1.538,2.678Z" transform="translate(-164.784 -250.835)" fill="#f0ebe6"/><path d="M230.457,252.647a5.207,5.207,0,0,1,.4,1.883,4.44,4.44,0,0,1-.319,1.757,4.334,4.334,0,0,1-1,1.48,5.378,5.378,0,0,1-3.572,1.448,4.375,4.375,0,0,1-1.754-.361,4.466,4.466,0,0,1-1.458-1.037,5.433,5.433,0,0,1-1.424-3.512,4.467,4.467,0,0,1,.325-1.76,4.378,4.378,0,0,1,1.007-1.481,5.02,5.02,0,0,1,1.649-1.054,5.228,5.228,0,0,1,1.3-.348,4.669,4.669,0,0,1,1.235,0,4.245,4.245,0,0,1,1.141.322,4.427,4.427,0,0,1,1.012.621,4.659,4.659,0,0,1,.839.9A5.451,5.451,0,0,1,230.457,252.647Zm-1.64.665a4.285,4.285,0,0,0-.707-1.2,2.946,2.946,0,0,0-.931-.737,2.514,2.514,0,0,0-1.1-.255,3.449,3.449,0,0,0-2.272.921,2.534,2.534,0,0,0-.614.95,2.919,2.919,0,0,0-.158,1.179,4.69,4.69,0,0,0,1.032,2.546,2.878,2.878,0,0,0,.932.733,2.559,2.559,0,0,0,1.1.251,3.452,3.452,0,0,0,2.272-.921,2.527,2.527,0,0,0,.613-.946,2.912,2.912,0,0,0,.156-1.174A4.282,4.282,0,0,0,228.817,253.311Z" transform="translate(-177.546 -244.575)" fill="#f0ebe6"/><path d="M252.445,250.527l.365,1.381-5.269,1.393-2.378-8.995,1.673-.442,2.013,7.614Z" transform="translate(-191.645 -241.17)" fill="#f0ebe6"/><path d="M269.352,247.166l.227,1.411-5.381.865-1.478-9.186,1.709-.275,1.251,7.775Z" transform="translate(-202.03 -238.873)" fill="#f0ebe6"/><path d="M296.7,242.055a5.021,5.021,0,0,1-.372,1.873,4.215,4.215,0,0,1-2.484,2.392,5.235,5.235,0,0,1-1.936.31l-3.545-.057.151-9.3,3.545.058a5.193,5.193,0,0,1,1.925.375,4.356,4.356,0,0,1,1.471.982,4.285,4.285,0,0,1,.935,1.486A5.034,5.034,0,0,1,296.7,242.055Zm-1.776-.029a4.333,4.333,0,0,0-.18-1.377,2.853,2.853,0,0,0-.569-1.039,2.555,2.555,0,0,0-.915-.662,3.189,3.189,0,0,0-1.222-.245l-1.808-.029-.106,6.549,1.808.029a3.183,3.183,0,0,0,1.23-.205,2.564,2.564,0,0,0,.937-.632,2.853,2.853,0,0,0,.6-1.02A4.314,4.314,0,0,0,294.92,242.026Z" transform="translate(-217.195 -237.27)" fill="#f0ebe6"/><path d="M321.116,244.5a5.2,5.2,0,0,1-.614,1.824,4.452,4.452,0,0,1-1.168,1.351,4.349,4.349,0,0,1-1.617.763,5.377,5.377,0,0,1-3.811-.57,4.37,4.37,0,0,1-1.326-1.2,4.455,4.455,0,0,1-.728-1.635,5.437,5.437,0,0,1,.56-3.748,4.468,4.468,0,0,1,1.175-1.35,4.383,4.383,0,0,1,1.621-.763,5.016,5.016,0,0,1,1.955-.069,5.226,5.226,0,0,1,1.293.36,4.671,4.671,0,0,1,1.065.627,4.263,4.263,0,0,1,.818.857,4.429,4.429,0,0,1,.555,1.049,4.675,4.675,0,0,1,.267,1.2A5.482,5.482,0,0,1,321.116,244.5Zm-1.75-.262a4.275,4.275,0,0,0,0-1.389,2.95,2.95,0,0,0-.426-1.108,2.516,2.516,0,0,0-.817-.779,3.452,3.452,0,0,0-2.425-.362,2.537,2.537,0,0,0-1.012.505,2.921,2.921,0,0,0-.735.934,4.689,4.689,0,0,0-.406,2.717,2.878,2.878,0,0,0,.43,1.105,2.55,2.55,0,0,0,.821.777,3.45,3.45,0,0,0,2.425.363,2.523,2.523,0,0,0,1.009-.5,2.915,2.915,0,0,0,.732-.932A4.286,4.286,0,0,0,319.366,244.243Z" transform="translate(-231.018 -238.318)" fill="#f0ebe6"/><path d="M352.785,245.932l-5.693,7.906-1.483-.5.09-6.674a4.406,4.406,0,0,1,.033-.586c-.058.094-.115.181-.169.262s-.109.156-.163.223l-3.964,5.377-1.489-.5.22-9.738,1.373.46a.64.64,0,0,1,.323.22.515.515,0,0,1,.1.336l-.266,5.78c-.011.141-.027.293-.047.455s-.042.333-.066.511q.135-.24.268-.446t.266-.379l3.5-4.7a.608.608,0,0,1,.278-.192.567.567,0,0,1,.39,0l.482.161a.583.583,0,0,1,.313.22.674.674,0,0,1,.112.336l-.04,5.856a8.047,8.047,0,0,1-.061.95q.241-.455.469-.813l3.268-4.775a.478.478,0,0,1,.274-.2.619.619,0,0,1,.394.009Z" transform="translate(-247.708 -239.895)" fill="#f0ebe6"/><path d="M376.988,258.649l-4.432,8.181-.781-.423a.784.784,0,0,1-.27-.223.808.808,0,0,1-.126-.328l-1.317-7.768q-.169.391-.34.708L367,263.82l-1.341-.726,4.432-8.181.8.432a1.516,1.516,0,0,1,.162.1.444.444,0,0,1,.106.1.456.456,0,0,1,.065.13,1.338,1.338,0,0,1,.044.188l1.322,7.8q.091-.207.183-.406t.182-.362l2.694-4.973Z" transform="translate(-262.916 -247.705)" fill="#f0ebe6"/><path d="M418.612,295.242a.6.6,0,0,1-.255.018.366.366,0,0,1-.193-.113.558.558,0,0,1-.131-.28c-.025-.122-.059-.264-.1-.425a3.136,3.136,0,0,0-.194-.523,2.164,2.164,0,0,0-.408-.567,2.059,2.059,0,0,0-.5-.394,1.321,1.321,0,0,0-.488-.16.964.964,0,0,0-.456.059,1.212,1.212,0,0,0-.4.263.822.822,0,0,0-.267.512,1.536,1.536,0,0,0,.068.609,4.528,4.528,0,0,0,.278.688q.179.363.361.751a7.566,7.566,0,0,1,.317.793,2.736,2.736,0,0,1,.143.818,2.11,2.11,0,0,1-.157.825,2.377,2.377,0,0,1-.582.815,3.215,3.215,0,0,1-1,.663,2.722,2.722,0,0,1-1.128.21,2.971,2.971,0,0,1-1.166-.284,3.725,3.725,0,0,1-1.119-.825,4.416,4.416,0,0,1-.544-.691,4.626,4.626,0,0,1-.395-.768,4.452,4.452,0,0,1-.237-.8,3.588,3.588,0,0,1-.067-.793l.95-.209a.544.544,0,0,1,.225.016.423.423,0,0,1,.2.115.613.613,0,0,1,.145.342c.023.151.055.325.1.523a3.466,3.466,0,0,0,.206.636,2.311,2.311,0,0,0,.478.688,1.7,1.7,0,0,0,1.047.582,1.26,1.26,0,0,0,1.007-.406.935.935,0,0,0,.3-.547,1.478,1.478,0,0,0-.056-.62,3.613,3.613,0,0,0-.285-.681q-.189-.354-.373-.731a6.72,6.72,0,0,1-.321-.78,2.547,2.547,0,0,1-.139-.822,2.137,2.137,0,0,1,.185-.852,2.756,2.756,0,0,1,.645-.875,2.578,2.578,0,0,1,1.88-.71,2.876,2.876,0,0,1,1.091.272,3.492,3.492,0,0,1,1.064.78,4.338,4.338,0,0,1,.867,1.273,3.428,3.428,0,0,1,.3,1.353Z" transform="translate(-289.133 -269.231)" fill="#f0ebe6"/><path d="M428.269,314.709a.345.345,0,0,1,.065.266l-.174.991a3.742,3.742,0,0,1-1.7-.455,4.794,4.794,0,0,1-1.5-1.352,4.678,4.678,0,0,1-.849-1.7,4.1,4.1,0,0,1-.074-1.72,4.31,4.31,0,0,1,.653-1.627,5.642,5.642,0,0,1,1.33-1.407,5.328,5.328,0,0,1,1.73-.9,4.412,4.412,0,0,1,1.766-.162,4.274,4.274,0,0,1,1.661.558,4.81,4.81,0,0,1,1.411,1.271,4.585,4.585,0,0,1,.829,1.637,4.3,4.3,0,0,1,.118,1.6l-.991.028a.53.53,0,0,1-.187-.023.374.374,0,0,1-.181-.141.419.419,0,0,1-.077-.192q-.019-.115-.03-.261c-.006-.1-.017-.208-.031-.333a2.269,2.269,0,0,0-.085-.4,3.07,3.07,0,0,0-.191-.474,3.39,3.39,0,0,0-.349-.547,2.867,2.867,0,0,0-.869-.773,2.483,2.483,0,0,0-1.052-.318,2.971,2.971,0,0,0-1.17.164,4.311,4.311,0,0,0-1.227.677,4.079,4.079,0,0,0-.976,1.024,3.072,3.072,0,0,0-.453,1.1,2.57,2.57,0,0,0,.034,1.1,2.766,2.766,0,0,0,.494,1.015,4.826,4.826,0,0,0,.42.485,2.745,2.745,0,0,0,.417.346,2.333,2.333,0,0,0,.449.232,2.868,2.868,0,0,0,.518.143.586.586,0,0,1,.156.051A.325.325,0,0,1,428.269,314.709Z" transform="translate(-297.41 -278.289)" fill="#f0ebe6"/><path d="M436.392,332.937l-.788-1.35a.685.685,0,0,1-.025-.731l1.586-3.191a.682.682,0,0,0,.084-.328.847.847,0,0,0-.135-.372l-.373-.639-3.14,1.833-.873-1.495,8.035-4.691,1.431,2.451a5.887,5.887,0,0,1,.65,1.5,3.111,3.111,0,0,1,.086,1.239,2.144,2.144,0,0,1-.408.98,2.94,2.94,0,0,1-1.669,1.052,2.557,2.557,0,0,1-.856.038,2.68,2.68,0,0,1-.842-.254,3.219,3.219,0,0,1-.79-.548,1.7,1.7,0,0,1-.041.382,1.66,1.66,0,0,1-.14.38Zm1.967-6.3a2.684,2.684,0,0,0,.535.675,1.657,1.657,0,0,0,.594.346,1.356,1.356,0,0,0,.619.045,1.768,1.768,0,0,0,.62-.228,1.321,1.321,0,0,0,.7-.951,2.232,2.232,0,0,0-.391-1.422l-.558-.956-2.667,1.557Z" transform="translate(-302.586 -287.37)" fill="#f0ebe6"/><path d="M451.615,352.626a5.194,5.194,0,0,1-1.88.412,4.442,4.442,0,0,1-1.76-.306,4.342,4.342,0,0,1-1.487-.993,5.384,5.384,0,0,1-1.473-3.561,4.377,4.377,0,0,1,.349-1.756,4.461,4.461,0,0,1,1.027-1.466,5.434,5.434,0,0,1,3.5-1.449,4.47,4.47,0,0,1,1.762.312,4.38,4.38,0,0,1,1.488,1,5.022,5.022,0,0,1,1.066,1.641,5.23,5.23,0,0,1,.357,1.293,4.677,4.677,0,0,1,.01,1.235,4.236,4.236,0,0,1-.314,1.143,4.4,4.4,0,0,1-.614,1.016,4.674,4.674,0,0,1-.889.845A5.445,5.445,0,0,1,451.615,352.626Zm-.676-1.635a4.281,4.281,0,0,0,1.19-.715,2.954,2.954,0,0,0,.73-.936,2.51,2.51,0,0,0,.247-1.1,3.445,3.445,0,0,0-.937-2.265,2.533,2.533,0,0,0-.955-.607,2.918,2.918,0,0,0-1.179-.15,4.685,4.685,0,0,0-2.539,1.051,2.875,2.875,0,0,0-.726.938,2.55,2.55,0,0,0-.243,1.1,3.443,3.443,0,0,0,.937,2.265,2.523,2.523,0,0,0,.951.606,2.914,2.914,0,0,0,1.175.147A4.262,4.262,0,0,0,450.939,350.991Z" transform="translate(-309.853 -300.106)" fill="#f0ebe6"/><path d="M454.1,374.572l-1.378.375-1.43-5.259,8.978-2.441.454,1.67-7.6,2.066Z" transform="translate(-313.564 -314.148)" fill="#f0ebe6"/><path d="M457.538,391.471l-1.409.237-.9-5.375,9.176-1.541.287,1.707-7.767,1.3Z" transform="translate(-315.893 -324.525)" fill="#f0ebe6"/><path d="M463.017,418.463a5.021,5.021,0,0,1-1.884-.311,4.218,4.218,0,0,1-2.472-2.4,5.243,5.243,0,0,1-.372-1.924l-.058-3.545,9.3-.151.058,3.545a5.2,5.2,0,0,1-.313,1.936,4.369,4.369,0,0,1-.934,1.5,4.285,4.285,0,0,1-1.455.982A5.023,5.023,0,0,1,463.017,418.463Zm-.029-1.776a4.325,4.325,0,0,0,1.37-.225,2.848,2.848,0,0,0,1.02-.6,2.562,2.562,0,0,0,.631-.937,3.169,3.169,0,0,0,.205-1.229l-.029-1.808-6.549.106.029,1.808a3.183,3.183,0,0,0,.245,1.222,2.553,2.553,0,0,0,.662.916,2.841,2.841,0,0,0,1.039.569A4.316,4.316,0,0,0,462.989,416.688Z" transform="translate(-317.671 -339.511)" fill="#f0ebe6"/><path d="M460.477,443.258a5.213,5.213,0,0,1-1.829-.6,4.452,4.452,0,0,1-1.359-1.159,4.351,4.351,0,0,1-.774-1.612,5.383,5.383,0,0,1,.544-3.816,4.383,4.383,0,0,1,1.194-1.335,4.461,4.461,0,0,1,1.629-.739,5.436,5.436,0,0,1,3.752.534,4.468,4.468,0,0,1,1.358,1.165,4.384,4.384,0,0,1,.774,1.615,5,5,0,0,1,.082,1.955,5.216,5.216,0,0,1-.35,1.3,4.669,4.669,0,0,1-.621,1.069,4.212,4.212,0,0,1-.852.824,4.44,4.44,0,0,1-1.045.563,4.725,4.725,0,0,1-1.2.275A5.476,5.476,0,0,1,460.477,443.258Zm.25-1.752a4.272,4.272,0,0,0,1.389-.01,2.942,2.942,0,0,0,1.1-.434,2.515,2.515,0,0,0,.774-.822,3.45,3.45,0,0,0,.346-2.427,2.538,2.538,0,0,0-.513-1.009,2.9,2.9,0,0,0-.94-.729,4.686,4.686,0,0,0-2.72-.388,2.88,2.88,0,0,0-1.1.438,2.548,2.548,0,0,0-.771.826,3.447,3.447,0,0,0-.346,2.427,2.526,2.526,0,0,0,.51,1.005,2.906,2.906,0,0,0,.937.725A4.259,4.259,0,0,0,460.727,441.505Z" transform="translate(-316.572 -353.552)" fill="#f0ebe6"/><path d="M455.551,474.948l-7.947-5.636.486-1.486,6.674.042a4.335,4.335,0,0,1,.586.029q-.141-.087-.263-.167t-.225-.162l-5.4-3.926.487-1.492,9.739.15-.45,1.376a.64.64,0,0,1-.218.325.514.514,0,0,1-.335.1l-5.782-.224q-.211-.015-.456-.044l-.511-.062q.241.133.448.265t.381.264l4.723,3.466a.618.618,0,0,1,.194.276.57.57,0,0,1,0,.39l-.158.483a.582.582,0,0,1-.218.314.671.671,0,0,1-.335.114l-5.856,0a8.141,8.141,0,0,1-.951-.053q.457.237.817.463l4.8,3.234a.479.479,0,0,1,.2.272.619.619,0,0,1-.007.394Z" transform="translate(-311.384 -370.281)" fill="#f0ebe6"/><path d="M443.286,499.271l-8.211-4.376.418-.783a.779.779,0,0,1,.221-.272.8.8,0,0,1,.327-.128l7.759-1.37q-.393-.166-.711-.335l-5.042-2.687.717-1.346,8.211,4.376-.426.8a1.684,1.684,0,0,1-.1.163.426.426,0,0,1-.231.173,1.38,1.38,0,0,1-.188.045l-7.791,1.374q.208.089.407.181c.133.06.254.12.364.179l4.991,2.66Z" transform="translate(-303.973 -385.555)" fill="#f0ebe6"/><path d="M411.887,541.112a.607.607,0,0,1-.02-.255.364.364,0,0,1,.112-.194.55.55,0,0,1,.279-.133q.183-.039.424-.1a3.12,3.12,0,0,0,.522-.2,2.158,2.158,0,0,0,.565-.412,2.058,2.058,0,0,0,.391-.5,1.32,1.32,0,0,0,.156-.489.965.965,0,0,0-.062-.456,1.216,1.216,0,0,0-.266-.4.824.824,0,0,0-.513-.263,1.531,1.531,0,0,0-.609.072,4.5,4.5,0,0,0-.686.282q-.362.182-.748.366a7.649,7.649,0,0,1-.792.322,2.741,2.741,0,0,1-.816.149,2.106,2.106,0,0,1-.826-.151,2.388,2.388,0,0,1-.819-.577,3.214,3.214,0,0,1-.67-1,2.726,2.726,0,0,1-.218-1.127,2.97,2.97,0,0,1,.277-1.168,3.719,3.719,0,0,1,.818-1.125,4.415,4.415,0,0,1,.687-.549,4.627,4.627,0,0,1,.765-.4,4.426,4.426,0,0,1,.8-.243,3.589,3.589,0,0,1,.793-.072l.215.949a.542.542,0,0,1-.014.225.424.424,0,0,1-.114.2.622.622,0,0,1-.341.148c-.151.024-.324.058-.522.1a3.45,3.45,0,0,0-.635.21,2.306,2.306,0,0,0-.684.482,1.694,1.694,0,0,0-.575,1.051,1.259,1.259,0,0,0,.412,1,.936.936,0,0,0,.549.3,1.48,1.48,0,0,0,.62-.06,3.687,3.687,0,0,0,.679-.29q.353-.191.728-.377a6.734,6.734,0,0,1,.777-.327,2.543,2.543,0,0,1,.821-.144,2.13,2.13,0,0,1,.853.179,2.762,2.762,0,0,1,.879.639,2.574,2.574,0,0,1,.722,1.875,2.87,2.87,0,0,1-.264,1.093,3.484,3.484,0,0,1-.773,1.068,4.329,4.329,0,0,1-1.267.876,3.433,3.433,0,0,1-1.35.31Z" transform="translate(-287.54 -411.883)" fill="#f0ebe6"/><path d="M391.288,550.884a.342.342,0,0,1-.265.067l-.992-.168a3.754,3.754,0,0,1,.444-1.7,4.807,4.807,0,0,1,1.341-1.51,4.693,4.693,0,0,1,1.69-.86,4.1,4.1,0,0,1,1.719-.086,4.308,4.308,0,0,1,1.631.641,5.645,5.645,0,0,1,1.417,1.32,5.315,5.315,0,0,1,.911,1.724,4.413,4.413,0,0,1,.174,1.765,4.264,4.264,0,0,1-.547,1.664,4.815,4.815,0,0,1-1.261,1.42,4.59,4.59,0,0,1-1.632.84,4.306,4.306,0,0,1-1.6.13l-.034-.991a.522.522,0,0,1,.022-.187.372.372,0,0,1,.14-.182.42.42,0,0,1,.191-.079q.115-.02.261-.031t.332-.034a2.309,2.309,0,0,0,.4-.089,3.056,3.056,0,0,0,.471-.194,3.406,3.406,0,0,0,.545-.353,2.864,2.864,0,0,0,.767-.875,2.486,2.486,0,0,0,.311-1.054,2.969,2.969,0,0,0-.172-1.169,4.3,4.3,0,0,0-.686-1.222,4.085,4.085,0,0,0-1.03-.968,3.088,3.088,0,0,0-1.106-.446,2.569,2.569,0,0,0-1.1.042,2.764,2.764,0,0,0-1.011.5,4.89,4.89,0,0,0-.482.423,2.729,2.729,0,0,0-.343.42,2.359,2.359,0,0,0-.229.45,2.824,2.824,0,0,0-.14.518.617.617,0,0,1-.049.157A.326.326,0,0,1,391.288,550.884Z" transform="translate(-277.331 -420.214)" fill="#f0ebe6"/><path d="M370.747,559.145l1.345-.8a.686.686,0,0,1,.73-.03l3.2,1.565a.688.688,0,0,0,.329.082.845.845,0,0,0,.371-.138l.637-.377-1.855-3.127,1.489-.883,4.745,8-2.441,1.447a5.929,5.929,0,0,1-1.5.66,3.113,3.113,0,0,1-1.238.094,2.153,2.153,0,0,1-.982-.4,2.938,2.938,0,0,1-1.064-1.662,2.556,2.556,0,0,1-.044-.857,2.691,2.691,0,0,1,.248-.842,3.2,3.2,0,0,1,.543-.793,1.689,1.689,0,0,1-.382-.039,1.623,1.623,0,0,1-.381-.137Zm6.317,1.924a2.674,2.674,0,0,0-.671.54,1.654,1.654,0,0,0-.342.6,1.357,1.357,0,0,0-.041.619,1.759,1.759,0,0,0,.232.618,1.32,1.32,0,0,0,.956.7,2.229,2.229,0,0,0,1.42-.4l.952-.565-1.576-2.656Z" transform="translate(-265.925 -425.459)" fill="#f0ebe6"/><path d="M353.252,574.5a5.2,5.2,0,0,1-.425-1.877,4.441,4.441,0,0,1,.294-1.762,4.334,4.334,0,0,1,.983-1.494,5.379,5.379,0,0,1,3.551-1.5,4.379,4.379,0,0,1,1.759.337,4.473,4.473,0,0,1,1.473,1.017,5.433,5.433,0,0,1,1.473,3.492,4.47,4.47,0,0,1-.3,1.764,4.384,4.384,0,0,1-.986,1.495,5.017,5.017,0,0,1-1.634,1.077,5.224,5.224,0,0,1-1.291.366,4.661,4.661,0,0,1-1.235.018,4.23,4.23,0,0,1-1.145-.306,4.452,4.452,0,0,1-1.021-.607,4.693,4.693,0,0,1-.851-.884A5.469,5.469,0,0,1,353.252,574.5Zm1.63-.688a4.275,4.275,0,0,0,.724,1.186,2.941,2.941,0,0,0,.941.724,2.51,2.51,0,0,0,1.1.24,3.45,3.45,0,0,0,2.259-.953,2.535,2.535,0,0,0,.6-.959,2.915,2.915,0,0,0,.141-1.181,4.683,4.683,0,0,0-1.068-2.531,2.885,2.885,0,0,0-.942-.72,2.557,2.557,0,0,0-1.106-.236,3.456,3.456,0,0,0-2.259.953,2.53,2.53,0,0,0-.6.955,2.913,2.913,0,0,0-.139,1.176A4.271,4.271,0,0,0,354.882,573.807Z" transform="translate(-255.324 -432.808)" fill="#f0ebe6"/><path d="M333.963,577.1l-.384-1.375,5.249-1.467,2.5,8.961-1.667.466-2.119-7.585Z" transform="translate(-243.941 -436.592)" fill="#f0ebe6"/><path d="M318.236,580.65l-.247-1.407,5.368-.94,1.606,9.164-1.705.3-1.359-7.758Z" transform="translate(-234.72 -438.982)" fill="#f0ebe6"/><path d="M289.056,586.316a5.028,5.028,0,0,1,.31-1.884,4.22,4.22,0,0,1,2.405-2.472,5.245,5.245,0,0,1,1.924-.372l3.545-.057.151,9.3-3.545.057a5.2,5.2,0,0,1-1.936-.312,4.358,4.358,0,0,1-1.5-.934,4.284,4.284,0,0,1-.983-1.455A5.029,5.029,0,0,1,289.056,586.316Zm1.775-.029a4.321,4.321,0,0,0,.225,1.37,2.841,2.841,0,0,0,.6,1.02,2.556,2.556,0,0,0,.937.632,3.17,3.17,0,0,0,1.229.205l1.808-.029-.106-6.549-1.808.029a3.185,3.185,0,0,0-1.222.245,2.546,2.546,0,0,0-.916.662,2.846,2.846,0,0,0-.569,1.039A4.332,4.332,0,0,0,290.831,586.288Z" transform="translate(-217.606 -440.892)" fill="#f0ebe6"/><path d="M262.816,583.982a5.207,5.207,0,0,1,.589-1.833,4.448,4.448,0,0,1,1.149-1.366,4.344,4.344,0,0,1,1.607-.785,5.374,5.374,0,0,1,3.819.517,4.378,4.378,0,0,1,1.343,1.185,4.475,4.475,0,0,1,.75,1.624,5.438,5.438,0,0,1-.509,3.756,4.466,4.466,0,0,1-1.156,1.366,4.371,4.371,0,0,1-1.61.785,5.021,5.021,0,0,1-1.954.1,5.218,5.218,0,0,1-1.3-.342,4.652,4.652,0,0,1-1.073-.613,4.244,4.244,0,0,1-.83-.846,4.445,4.445,0,0,1-.57-1.041,4.7,4.7,0,0,1-.283-1.195A5.445,5.445,0,0,1,262.816,583.982Zm1.753.238a4.271,4.271,0,0,0,.019,1.388,2.944,2.944,0,0,0,.442,1.1,2.5,2.5,0,0,0,.828.768,3.446,3.446,0,0,0,2.429.33,2.539,2.539,0,0,0,1.006-.52,2.925,2.925,0,0,0,.722-.944,4.687,4.687,0,0,0,.369-2.723,2.883,2.883,0,0,0-.445-1.1,2.555,2.555,0,0,0-.831-.765,3.446,3.446,0,0,0-2.43-.329,2.524,2.524,0,0,0-1,.517,2.916,2.916,0,0,0-.719.941A4.269,4.269,0,0,0,264.569,584.22Z" transform="translate(-202.055 -439.897)" fill="#f0ebe6"/><path d="M226.279,579.3l5.58-7.985,1.489.476,0,6.674a4.334,4.334,0,0,1-.025.586q.086-.141.165-.265t.16-.226l3.888-5.432,1.5.477-.083,9.74-1.379-.44a.643.643,0,0,1-.326-.216.509.509,0,0,1-.106-.334l.184-5.783q.014-.212.041-.457t.059-.512q-.131.242-.262.45t-.261.383l-3.433,4.747a.608.608,0,0,1-.275.2.571.571,0,0,1-.39,0l-.484-.154a.584.584,0,0,1-.316-.216.674.674,0,0,1-.116-.334l-.043-5.856a8.083,8.083,0,0,1,.047-.951q-.234.458-.458.82l-3.2,4.821a.484.484,0,0,1-.271.2.622.622,0,0,1-.394,0Z" transform="translate(-180.476 -434.848)" fill="#f0ebe6"/><path d="M204.06,567.209l4.318-8.241.787.412a.786.786,0,0,1,.273.219.8.8,0,0,1,.13.327l1.424,7.749q.163-.393.33-.713l2.652-5.061,1.351.708-4.318,8.241-.8-.421a1.58,1.58,0,0,1-.164-.1.453.453,0,0,1-.107-.1.471.471,0,0,1-.067-.13,1.347,1.347,0,0,1-.047-.188l-1.429-7.78q-.087.208-.177.408t-.177.365l-2.625,5.01Z" transform="translate(-167.334 -427.546)" fill="#f0ebe6"/><path d="M164.546,536.061a.6.6,0,0,1,.255-.021.36.36,0,0,1,.195.11.553.553,0,0,1,.135.278q.04.183.107.424a3.081,3.081,0,0,0,.2.521,2.151,2.151,0,0,0,.415.562,2.056,2.056,0,0,0,.505.387,1.327,1.327,0,0,0,.49.153.974.974,0,0,0,.456-.066,1.217,1.217,0,0,0,.4-.268.823.823,0,0,0,.26-.515,1.534,1.534,0,0,0-.076-.608,4.485,4.485,0,0,0-.287-.684q-.184-.36-.371-.746a7.441,7.441,0,0,1-.328-.788,2.732,2.732,0,0,1-.154-.816,2.1,2.1,0,0,1,.146-.827,2.378,2.378,0,0,1,.571-.823,3.207,3.207,0,0,1,.991-.677,2.732,2.732,0,0,1,1.125-.226,2.967,2.967,0,0,1,1.17.268,3.734,3.734,0,0,1,1.13.809,4.434,4.434,0,0,1,.553.684,4.6,4.6,0,0,1,.405.762,4.43,4.43,0,0,1,.248.8,3.594,3.594,0,0,1,.077.792l-.948.222a.56.56,0,0,1-.225-.013.426.426,0,0,1-.2-.113.614.614,0,0,1-.15-.34q-.037-.225-.1-.521a3.506,3.506,0,0,0-.215-.634,2.3,2.3,0,0,0-.487-.681,1.7,1.7,0,0,0-1.055-.568,1.259,1.259,0,0,0-1,.42.934.934,0,0,0-.3.551,1.483,1.483,0,0,0,.065.619,3.615,3.615,0,0,0,.294.677q.194.351.383.726a6.791,6.791,0,0,1,.332.775,2.55,2.55,0,0,1,.15.82,2.144,2.144,0,0,1-.174.855,2.761,2.761,0,0,1-.633.884,2.533,2.533,0,0,1-.847.552,2.562,2.562,0,0,1-1.023.183,2.9,2.9,0,0,1-1.095-.256,3.51,3.51,0,0,1-1.074-.766,4.352,4.352,0,0,1-.884-1.261,3.428,3.428,0,0,1-.319-1.348Z" transform="translate(-143.44 -411.258)" fill="#f0ebe6"/><path d="M154.528,515.536a.345.345,0,0,1-.069-.265l.161-.994a3.751,3.751,0,0,1,1.705.432,4.8,4.8,0,0,1,1.52,1.331,4.677,4.677,0,0,1,.872,1.683,4.1,4.1,0,0,1,.1,1.719,4.311,4.311,0,0,1-.63,1.636,5.651,5.651,0,0,1-1.311,1.426,5.314,5.314,0,0,1-1.717.923,4.416,4.416,0,0,1-1.764.187,4.266,4.266,0,0,1-1.668-.535,4.812,4.812,0,0,1-1.428-1.251,4.58,4.58,0,0,1-.851-1.626,4.3,4.3,0,0,1-.14-1.6l.99-.041a.533.533,0,0,1,.188.02.372.372,0,0,1,.182.139.417.417,0,0,1,.08.191q.02.114.033.261c.008.1.02.208.036.332a2.315,2.315,0,0,0,.091.4,3.04,3.04,0,0,0,.2.471,3.438,3.438,0,0,0,.356.543,2.86,2.86,0,0,0,.88.761,2.47,2.47,0,0,0,1.056.3,2.954,2.954,0,0,0,1.167-.18,4.313,4.313,0,0,0,1.218-.694,4.081,4.081,0,0,0,.961-1.037,3.076,3.076,0,0,0,.438-1.109,2.57,2.57,0,0,0-.049-1.1,2.762,2.762,0,0,0-.509-1.007,4.731,4.731,0,0,0-.426-.48,2.7,2.7,0,0,0-.422-.34,2.325,2.325,0,0,0-.452-.226,2.836,2.836,0,0,0-.52-.136.587.587,0,0,1-.157-.049A.331.331,0,0,1,154.528,515.536Z" transform="translate(-134.935 -401.113)" fill="#f0ebe6"/><path d="M145.2,495.053l.807,1.339a.685.685,0,0,1,.034.73l-1.542,3.213a.692.692,0,0,0-.08.33.85.85,0,0,0,.141.37l.382.634,3.114-1.876.893,1.483-7.969,4.8-1.464-2.43a5.9,5.9,0,0,1-.67-1.493,3.111,3.111,0,0,1-.1-1.238,2.15,2.15,0,0,1,.394-.985,2.786,2.786,0,0,1,.822-.736,2.828,2.828,0,0,1,.832-.34,2.572,2.572,0,0,1,.857-.05,2.7,2.7,0,0,1,.844.243,3.229,3.229,0,0,1,.8.537,1.692,1.692,0,0,1,.036-.382,1.627,1.627,0,0,1,.134-.382Zm-1.88,6.331a2.669,2.669,0,0,0-.545-.668,1.644,1.644,0,0,0-.6-.338,1.352,1.352,0,0,0-.619-.037,1.771,1.771,0,0,0-.616.236,1.322,1.322,0,0,0-.691.961,2.23,2.23,0,0,0,.41,1.416l.571.948,2.646-1.594Z" transform="translate(-128.687 -389.742)" fill="#f0ebe6"/><path d="M130.622,477.655a5.2,5.2,0,0,1,1.874-.438,4.442,4.442,0,0,1,1.764.282,4.351,4.351,0,0,1,1.5.973,5.378,5.378,0,0,1,1.522,3.541,4.371,4.371,0,0,1-.325,1.761,4.465,4.465,0,0,1-1.006,1.48,5.436,5.436,0,0,1-3.481,1.5,4.471,4.471,0,0,1-1.766-.288,4.38,4.38,0,0,1-1.5-.976,5.017,5.017,0,0,1-1.088-1.627,5.2,5.2,0,0,1-.375-1.288,4.692,4.692,0,0,1-.027-1.235,4.239,4.239,0,0,1,.3-1.148,4.439,4.439,0,0,1,.6-1.025,4.69,4.69,0,0,1,.878-.857A5.436,5.436,0,0,1,130.622,477.655Zm.7,1.625a4.281,4.281,0,0,0-1.181.732,2.945,2.945,0,0,0-.717.946,2.514,2.514,0,0,0-.232,1.105,3.446,3.446,0,0,0,.969,2.252,2.536,2.536,0,0,0,.963.594,2.906,2.906,0,0,0,1.181.133,4.686,4.686,0,0,0,2.524-1.085,2.883,2.883,0,0,0,.713-.948,2.553,2.553,0,0,0,.228-1.107,3.45,3.45,0,0,0-.969-2.252,2.522,2.522,0,0,0-.959-.593,2.92,2.92,0,0,0-1.177-.131A4.284,4.284,0,0,0,131.321,479.281Z" transform="translate(-122.159 -379.191)" fill="#f0ebe6"/><path d="M128.147,458.368l1.373-.394,1.5,5.238-8.943,2.566-.477-1.664,7.57-2.172Z" transform="translate(-118.563 -367.811)" fill="#f0ebe6"/><path d="M124.428,442.643l1.405-.257.977,5.361-9.153,1.668-.31-1.7,7.748-1.412Z" transform="translate(-116.045 -358.591)" fill="#f0ebe6"/><path d="M118.722,413.564a5.028,5.028,0,0,1,1.885.3,4.217,4.217,0,0,1,2.479,2.4,5.242,5.242,0,0,1,.378,1.923l.069,3.544-9.3.181-.069-3.545a5.188,5.188,0,0,1,.307-1.936,4.356,4.356,0,0,1,.929-1.5,4.279,4.279,0,0,1,1.451-.987A5.025,5.025,0,0,1,118.722,413.564Zm.034,1.775a4.351,4.351,0,0,0-1.369.229,2.848,2.848,0,0,0-1.018.605,2.56,2.56,0,0,0-.629.939,3.173,3.173,0,0,0-.2,1.23l.035,1.807,6.549-.127-.035-1.808a3.186,3.186,0,0,0-.249-1.221,2.554,2.554,0,0,0-.665-.914,2.848,2.848,0,0,0-1.041-.565A4.342,4.342,0,0,0,118.756,415.34Z" transform="translate(-114.161 -341.543)" fill="#f0ebe6"/><path d="M120.616,387.3a5.2,5.2,0,0,1,1.836.576,4.449,4.449,0,0,1,1.375,1.14,4.341,4.341,0,0,1,.8,1.6,5.378,5.378,0,0,1-.491,3.823,4.379,4.379,0,0,1-1.176,1.351,4.469,4.469,0,0,1-1.619.762,5.438,5.438,0,0,1-3.759-.483,4.46,4.46,0,0,1-1.374-1.146,4.378,4.378,0,0,1-.8-1.6,5.014,5.014,0,0,1-.109-1.954,5.206,5.206,0,0,1,.333-1.3,4.661,4.661,0,0,1,.605-1.077,4.209,4.209,0,0,1,.84-.836,4.423,4.423,0,0,1,1.038-.577,4.669,4.669,0,0,1,1.192-.291A5.428,5.428,0,0,1,120.616,387.3Zm-.226,1.755a4.255,4.255,0,0,0-1.389.029,2.94,2.94,0,0,0-1.1.449,2.506,2.506,0,0,0-.762.833,3.45,3.45,0,0,0-.313,2.432,2.537,2.537,0,0,0,.527,1,2.915,2.915,0,0,0,.949.716,4.679,4.679,0,0,0,2.725.35,2.879,2.879,0,0,0,1.1-.453,2.55,2.55,0,0,0,.759-.836,3.451,3.451,0,0,0,.313-2.432,2.525,2.525,0,0,0-.524-1,2.913,2.913,0,0,0-.947-.712A4.269,4.269,0,0,0,120.39,389.051Z" transform="translate(-114.806 -325.978)" fill="#f0ebe6"/><path d="M121.5,350.763l8.024,5.525-.465,1.493-6.674.051a4.353,4.353,0,0,1-.587-.021c.095.056.183.111.266.163s.158.105.227.159l5.46,3.85-.467,1.5-9.74-.015.431-1.382a.637.637,0,0,1,.213-.328.509.509,0,0,1,.334-.108l5.785.144q.211.012.456.038l.512.055q-.243-.13-.452-.259t-.384-.258l-4.77-3.4a.609.609,0,0,1-.2-.274.572.572,0,0,1-.007-.389l.151-.485a.579.579,0,0,1,.214-.317.668.668,0,0,1,.333-.119l5.855-.083a8,8,0,0,1,.951.04q-.46-.231-.823-.452l-4.843-3.166a.482.482,0,0,1-.206-.27.621.621,0,0,1,0-.394Z" transform="translate(-116.163 -304.398)" fill="#f0ebe6"/><path d="M133.591,328.476l8.271,4.26-.406.789a.781.781,0,0,1-.218.275.8.8,0,0,1-.326.133l-7.738,1.478q.4.16.715.325l5.08,2.616-.7,1.356L130,335.449l.415-.807a1.671,1.671,0,0,1,.1-.165.461.461,0,0,1,.1-.108.466.466,0,0,1,.129-.067,1.269,1.269,0,0,1,.188-.048l7.771-1.484q-.21-.086-.41-.175c-.134-.059-.255-.117-.366-.174l-5.028-2.59Z" transform="translate(-123.529 -291.216)" fill="#f0ebe6"/></g></g></svg>